<mxfile host="app.diagrams.net" modified="2023-06-28T19:02:42.672Z" agent="Mozilla/5.0 (Windows NT 10.0; Win64; x64) AppleWebKit/537.36 (KHTML, like Gecko) Chrome/114.0.0.0 Safari/537.36" etag="dx25CKYA0wvZdHDs0jM7" version="21.5.1" type="github">
  <diagram name="Pagina-1" id="WcSLOMXtGoO5Kwd3MJ1G">
    <mxGraphModel dx="2843" dy="3277" grid="1" gridSize="10" guides="1" tooltips="1" connect="1" arrows="1" fold="1" page="1" pageScale="1" pageWidth="1169" pageHeight="827" math="0" shadow="0">
      <root>
        <object label="" Uses="" id="0">
          <mxCell />
        </object>
        <mxCell id="1" parent="0" />
        <mxCell id="0j8p1se4WsX_w9YfrRnY-1" value="" style="shape=folder;fontStyle=1;spacingTop=10;tabWidth=40;tabHeight=14;tabPosition=left;html=1;whiteSpace=wrap;shadow=0;fillColor=none;" parent="1" vertex="1">
          <mxGeometry x="1430" y="-790" width="830" height="490" as="geometry" />
        </mxCell>
        <mxCell id="EzJUuA46leq047YBjK1z-1" value="" style="shape=folder;fontStyle=1;spacingTop=10;tabWidth=40;tabHeight=14;tabPosition=left;html=1;whiteSpace=wrap;fillColor=none;" parent="1" vertex="1">
          <mxGeometry x="-340" y="-210" width="2920" height="1140" as="geometry" />
        </mxCell>
        <mxCell id="9WpMfCR_n4XsZXEiZ-4h-2" value="" style="shape=folder;fontStyle=1;spacingTop=10;tabWidth=40;tabHeight=14;tabPosition=left;html=1;whiteSpace=wrap;shadow=0;fillStyle=hatch;fillColor=default;" parent="1" vertex="1">
          <mxGeometry x="1110" y="-160" width="1460" height="730" as="geometry" />
        </mxCell>
        <mxCell id="Mxky3zlpcd0uLPRcEJlR-1" value="Game" style="swimlane;fontStyle=1;align=center;verticalAlign=top;childLayout=stackLayout;horizontal=1;startSize=26;horizontalStack=0;resizeParent=1;resizeParentMax=0;resizeLast=0;collapsible=1;marginBottom=0;whiteSpace=wrap;html=1;" parent="1" vertex="1">
          <mxGeometry x="260" y="-120" width="390" height="500" as="geometry">
            <mxRectangle x="330" y="50" width="80" height="30" as="alternateBounds" />
          </mxGeometry>
        </mxCell>
        <mxCell id="Mxky3zlpcd0uLPRcEJlR-2" value="- players: ArrayList&amp;lt;Player&amp;gt;&lt;br&gt;- firstPlayer: Player&lt;br&gt;- commonGoals: ArrayList&amp;lt;CommonGoal&amp;gt;&lt;br&gt;- board: Board&lt;br&gt;- gameState: GameStates&lt;br&gt;- numberOfPlayers: int&lt;br&gt;- chat: Chat&lt;br&gt;- currentPlayer: Player" style="text;strokeColor=none;fillColor=none;align=left;verticalAlign=top;spacingLeft=4;spacingRight=4;overflow=hidden;rotatable=0;points=[[0,0.5],[1,0.5]];portConstraint=eastwest;whiteSpace=wrap;html=1;" parent="Mxky3zlpcd0uLPRcEJlR-1" vertex="1">
          <mxGeometry y="26" width="390" height="124" as="geometry" />
        </mxCell>
        <mxCell id="Mxky3zlpcd0uLPRcEJlR-3" value="" style="line;strokeWidth=1;fillColor=none;align=left;verticalAlign=middle;spacingTop=-1;spacingLeft=3;spacingRight=3;rotatable=0;labelPosition=right;points=[];portConstraint=eastwest;strokeColor=inherit;" parent="Mxky3zlpcd0uLPRcEJlR-1" vertex="1">
          <mxGeometry y="150" width="390" height="30" as="geometry" />
        </mxCell>
        <mxCell id="Mxky3zlpcd0uLPRcEJlR-4" value="+ inizializeGame(Player,int): void&lt;br&gt;+ getFirstPlayer(): Player&lt;br style=&quot;border-color: var(--border-color);&quot;&gt;+ getCurrentPlayer(): Player&lt;br&gt;+ getPlayers(): ArrayList&amp;lt;Players&amp;gt;&lt;br&gt;+ getBoard(): Board&lt;br&gt;+ getCommonGoals(): ArrayList&amp;lt;CommonGoal&amp;gt;&lt;br&gt;+ getChat(): Chat&lt;br&gt;+ getNumberOfPlayers(): int&lt;br&gt;+ getGameState(): GameStates&lt;br&gt;+ getNextPlayer(): Player&lt;br&gt;+ setFirstPlayer(Player): void&lt;br&gt;+ setCurrentPlayer(Player): void&lt;br&gt;+ setPlayers(ArrayList&amp;lt;Player&amp;gt;): void&lt;br style=&quot;border-color: var(--border-color);&quot;&gt;+ setBoard(Board): void&lt;br&gt;+ setChat(Chat): void&lt;br style=&quot;border-color: var(--border-color);&quot;&gt;+ setCommonGoals(ArrayList&amp;lt;CommonGoal&amp;gt; ): void&lt;br&gt;+ setGameState(GameStates): void&lt;br&gt;+ addPlayer(Player): void&lt;br style=&quot;border-color: var(--border-color);&quot;&gt;-&amp;nbsp; fillCommonGoalsStrategyArray(): ArrayList&amp;lt;Class&amp;lt;?&amp;gt;&amp;gt;&lt;br&gt;+ randomCommonGoals(): ArrayList&amp;lt;CommonGoal&amp;gt;&lt;br&gt;+ commonGoalByIndex(int[]): ArrayList&amp;lt;CommonGoal&amp;gt;" style="text;strokeColor=none;fillColor=none;align=left;verticalAlign=top;spacingLeft=4;spacingRight=4;overflow=hidden;rotatable=0;points=[[0,0.5],[1,0.5]];portConstraint=eastwest;whiteSpace=wrap;html=1;" parent="Mxky3zlpcd0uLPRcEJlR-1" vertex="1">
          <mxGeometry y="180" width="390" height="320" as="geometry" />
        </mxCell>
        <mxCell id="Mxky3zlpcd0uLPRcEJlR-6" value="Board" style="swimlane;fontStyle=1;align=center;verticalAlign=top;childLayout=stackLayout;horizontal=1;startSize=26;horizontalStack=0;resizeParent=1;resizeParentMax=0;resizeLast=0;collapsible=1;marginBottom=0;whiteSpace=wrap;html=1;" parent="1" vertex="1">
          <mxGeometry x="740" y="50" width="310" height="450" as="geometry" />
        </mxCell>
        <mxCell id="Mxky3zlpcd0uLPRcEJlR-7" value="- board: Tile[][]&lt;br&gt;- endGame: boolean&lt;br&gt;- temporaryPoints: ArrayList&amp;lt;Point&amp;gt;&lt;br&gt;- bag: Bag&lt;br&gt;- selectablePoints: ArrayList&amp;lt;Point&amp;gt;" style="text;strokeColor=none;fillColor=none;align=left;verticalAlign=top;spacingLeft=4;spacingRight=4;overflow=hidden;rotatable=0;points=[[0,0.5],[1,0.5]];portConstraint=eastwest;whiteSpace=wrap;html=1;" parent="Mxky3zlpcd0uLPRcEJlR-6" vertex="1">
          <mxGeometry y="26" width="310" height="84" as="geometry" />
        </mxCell>
        <mxCell id="Mxky3zlpcd0uLPRcEJlR-8" value="" style="line;strokeWidth=1;fillColor=none;align=left;verticalAlign=middle;spacingTop=-1;spacingLeft=3;spacingRight=3;rotatable=0;labelPosition=right;points=[];portConstraint=eastwest;strokeColor=inherit;" parent="Mxky3zlpcd0uLPRcEJlR-6" vertex="1">
          <mxGeometry y="110" width="310" height="8" as="geometry" />
        </mxCell>
        <mxCell id="Mxky3zlpcd0uLPRcEJlR-9" value="- getAdjacentPoints(Point): ArrayList&amp;lt;Point&amp;gt;&lt;br&gt;- updateSelectablePoints(): void&lt;br&gt;- getFreeEdgesPoints(): ArrayList&amp;lt;Point&amp;gt;&lt;br&gt;- getAdjacentSelectablePoints(): ArrayList&amp;lt;Point&amp;gt;&lt;br&gt;- getSelectablePointsInStraightLine(): ArrayList&amp;lt;Point&amp;gt;&lt;br&gt;+ getBoard(): Tile[][]&lt;br&gt;+ getBag(): Bag&lt;br&gt;+ isEndGame: boolean&lt;br&gt;+ getTemporaryPoints(): ArrayList&amp;lt;Point&amp;gt;&lt;br&gt;+ getSelectablePoints(): ArrayList&amp;lt;Point&amp;gt;&lt;br&gt;+ setBoard(Tile[][]): void&lt;br&gt;+ setEndGame(boolean): void&lt;br&gt;+ setTemporaryPoints(ArrayList&amp;lt;Point&amp;gt;): void&lt;br&gt;+ updateBoard(Tile, int, int): void&lt;br style=&quot;border-color: var(--border-color);&quot;&gt;+ getTileFromBoard(Point): Tile&lt;br&gt;+ addTemporaryPoints(Point): void&lt;br&gt;+ cleanTemporaryPoints(): void&lt;br&gt;+ areAdjacentPoints(Point,Point): boolean&lt;br&gt;+ printBoard(): void&lt;br&gt;+ isBoardEmpty(): boolean&lt;br&gt;+ removeTemporaryPoints(Point): void" style="text;strokeColor=none;fillColor=none;align=left;verticalAlign=top;spacingLeft=4;spacingRight=4;overflow=hidden;rotatable=0;points=[[0,0.5],[1,0.5]];portConstraint=eastwest;whiteSpace=wrap;html=1;" parent="Mxky3zlpcd0uLPRcEJlR-6" vertex="1">
          <mxGeometry y="118" width="310" height="332" as="geometry" />
        </mxCell>
        <mxCell id="Mxky3zlpcd0uLPRcEJlR-15" value="" style="endArrow=diamondThin;endFill=1;html=1;edgeStyle=orthogonalEdgeStyle;align=left;verticalAlign=top;rounded=0;exitX=0;exitY=0.5;exitDx=0;exitDy=0;entryX=1;entryY=0.243;entryDx=0;entryDy=0;entryPerimeter=0;" parent="1" source="Mxky3zlpcd0uLPRcEJlR-7" target="Mxky3zlpcd0uLPRcEJlR-4" edge="1">
          <mxGeometry x="-0.0588" y="-5" relative="1" as="geometry">
            <mxPoint x="460" y="110" as="sourcePoint" />
            <mxPoint x="600" y="70" as="targetPoint" />
            <mxPoint as="offset" />
          </mxGeometry>
        </mxCell>
        <mxCell id="Mxky3zlpcd0uLPRcEJlR-16" value="1" style="edgeLabel;resizable=0;html=1;align=left;verticalAlign=bottom;" parent="Mxky3zlpcd0uLPRcEJlR-15" connectable="0" vertex="1">
          <mxGeometry relative="1" as="geometry">
            <mxPoint as="offset" />
          </mxGeometry>
        </mxCell>
        <mxCell id="Mxky3zlpcd0uLPRcEJlR-18" value="Shelf" style="swimlane;fontStyle=1;align=center;verticalAlign=top;childLayout=stackLayout;horizontal=1;startSize=26;horizontalStack=0;resizeParent=1;resizeParentMax=0;resizeLast=0;collapsible=1;marginBottom=0;whiteSpace=wrap;html=1;" parent="1" vertex="1">
          <mxGeometry x="-100" y="280" width="290" height="340" as="geometry" />
        </mxCell>
        <mxCell id="Mxky3zlpcd0uLPRcEJlR-19" value="- shelf: Tile[][]&lt;br&gt;- selectionPossible: boolean&lt;br&gt;- selectableColumns: ArrayList&amp;lt;Integer&amp;gt;&lt;br&gt;- selectedColumn: Integer" style="text;strokeColor=none;fillColor=none;align=left;verticalAlign=top;spacingLeft=4;spacingRight=4;overflow=hidden;rotatable=0;points=[[0,0.5],[1,0.5]];portConstraint=eastwest;whiteSpace=wrap;html=1;" parent="Mxky3zlpcd0uLPRcEJlR-18" vertex="1">
          <mxGeometry y="26" width="290" height="74" as="geometry" />
        </mxCell>
        <mxCell id="Mxky3zlpcd0uLPRcEJlR-20" value="" style="line;strokeWidth=1;fillColor=none;align=left;verticalAlign=middle;spacingTop=-1;spacingLeft=3;spacingRight=3;rotatable=0;labelPosition=right;points=[];portConstraint=eastwest;strokeColor=inherit;" parent="Mxky3zlpcd0uLPRcEJlR-18" vertex="1">
          <mxGeometry y="100" width="290" height="8" as="geometry" />
        </mxCell>
        <mxCell id="Mxky3zlpcd0uLPRcEJlR-21" value="+ getShelf(): Tile[][]&lt;br&gt;+ getTileShelf(int,int): Tile&lt;br&gt;+ isselectionPossible(): boolean&lt;br&gt;+ getSelectedcolumn(): Integer&lt;br&gt;+ getSelectableColumns(): ArrayList&amp;lt;Integer&amp;gt;&lt;br&gt;+ setShelf (Tile[][]): void&lt;br&gt;+ setSelectionPossible(boolean): void&lt;br&gt;+ setSelectableColumns(ArrayList&amp;lt;Integer&amp;gt;): void&lt;br&gt;+ setSelectedColumn(Integer): void&lt;br&gt;+ maxFreeColumnSpace(): int&lt;br&gt;+ instertTiles(Tile,int,int): void&lt;br&gt;+ updateSelectableColumns(Player): void&lt;br&gt;+ cleanSelectedColumn(): void&lt;br&gt;+ cleanSelectableColumns(): void&lt;br&gt;+ printShelf(): void" style="text;strokeColor=none;fillColor=none;align=left;verticalAlign=top;spacingLeft=4;spacingRight=4;overflow=hidden;rotatable=0;points=[[0,0.5],[1,0.5]];portConstraint=eastwest;whiteSpace=wrap;html=1;" parent="Mxky3zlpcd0uLPRcEJlR-18" vertex="1">
          <mxGeometry y="108" width="290" height="232" as="geometry" />
        </mxCell>
        <mxCell id="Mxky3zlpcd0uLPRcEJlR-22" value="" style="endArrow=diamondThin;endFill=1;html=1;edgeStyle=orthogonalEdgeStyle;align=left;verticalAlign=top;rounded=0;exitX=1;exitY=0.25;exitDx=0;exitDy=0;" parent="1" source="Mxky3zlpcd0uLPRcEJlR-18" edge="1">
          <mxGeometry x="-1" relative="1" as="geometry">
            <mxPoint x="390" y="280" as="sourcePoint" />
            <mxPoint x="300" y="540" as="targetPoint" />
            <Array as="points">
              <mxPoint x="210" y="365" />
              <mxPoint x="210" y="540" />
              <mxPoint x="299" y="540" />
            </Array>
          </mxGeometry>
        </mxCell>
        <mxCell id="Mxky3zlpcd0uLPRcEJlR-23" value="1" style="edgeLabel;resizable=0;html=1;align=left;verticalAlign=bottom;" parent="Mxky3zlpcd0uLPRcEJlR-22" connectable="0" vertex="1">
          <mxGeometry x="-1" relative="1" as="geometry" />
        </mxCell>
        <mxCell id="Mxky3zlpcd0uLPRcEJlR-24" value="PersonalGoal" style="swimlane;fontStyle=1;align=center;verticalAlign=top;childLayout=stackLayout;horizontal=1;startSize=26;horizontalStack=0;resizeParent=1;resizeParentMax=0;resizeLast=0;collapsible=1;marginBottom=0;whiteSpace=wrap;html=1;" parent="1" vertex="1">
          <mxGeometry x="-320" y="650" width="280" height="140" as="geometry" />
        </mxCell>
        <mxCell id="Mxky3zlpcd0uLPRcEJlR-25" value="- personalGoal: TilesEnum[][]&lt;br&gt;- usedCodes: List&amp;lt;Integer&amp;gt;" style="text;strokeColor=none;fillColor=none;align=left;verticalAlign=top;spacingLeft=4;spacingRight=4;overflow=hidden;rotatable=0;points=[[0,0.5],[1,0.5]];portConstraint=eastwest;whiteSpace=wrap;html=1;" parent="Mxky3zlpcd0uLPRcEJlR-24" vertex="1">
          <mxGeometry y="26" width="280" height="34" as="geometry" />
        </mxCell>
        <mxCell id="Mxky3zlpcd0uLPRcEJlR-26" value="" style="line;strokeWidth=1;fillColor=none;align=left;verticalAlign=middle;spacingTop=-1;spacingLeft=3;spacingRight=3;rotatable=0;labelPosition=right;points=[];portConstraint=eastwest;strokeColor=inherit;" parent="Mxky3zlpcd0uLPRcEJlR-24" vertex="1">
          <mxGeometry y="60" width="280" height="8" as="geometry" />
        </mxCell>
        <mxCell id="Mxky3zlpcd0uLPRcEJlR-27" value="+ getPersonalGoal(): TilesEnum[][]&lt;br&gt;+ getUsedCodes(): List&amp;lt;Integer&amp;gt;&lt;br&gt;+ setUsedCodes(List&amp;lt;Integer&amp;gt;): void&lt;br&gt;+ cleanUsedCodes(): void" style="text;strokeColor=none;fillColor=none;align=left;verticalAlign=top;spacingLeft=4;spacingRight=4;overflow=hidden;rotatable=0;points=[[0,0.5],[1,0.5]];portConstraint=eastwest;whiteSpace=wrap;html=1;" parent="Mxky3zlpcd0uLPRcEJlR-24" vertex="1">
          <mxGeometry y="68" width="280" height="72" as="geometry" />
        </mxCell>
        <mxCell id="Mxky3zlpcd0uLPRcEJlR-29" value="" style="endArrow=diamondThin;endFill=1;html=1;edgeStyle=orthogonalEdgeStyle;align=left;verticalAlign=top;rounded=0;exitX=1;exitY=0.25;exitDx=0;exitDy=0;" parent="1" source="Mxky3zlpcd0uLPRcEJlR-24" edge="1">
          <mxGeometry x="-1" relative="1" as="geometry">
            <mxPoint x="-40" y="650" as="sourcePoint" />
            <mxPoint x="300" y="580" as="targetPoint" />
            <mxPoint as="offset" />
            <Array as="points">
              <mxPoint x="-40" y="700" />
              <mxPoint x="250" y="700" />
              <mxPoint x="250" y="580" />
            </Array>
          </mxGeometry>
        </mxCell>
        <mxCell id="Mxky3zlpcd0uLPRcEJlR-30" value="1" style="edgeLabel;resizable=0;html=1;align=left;verticalAlign=bottom;" parent="Mxky3zlpcd0uLPRcEJlR-29" connectable="0" vertex="1">
          <mxGeometry x="-1" relative="1" as="geometry">
            <mxPoint y="15" as="offset" />
          </mxGeometry>
        </mxCell>
        <mxCell id="_N1UwID_5jC3FNQXrJoQ-50" style="edgeStyle=orthogonalEdgeStyle;rounded=0;orthogonalLoop=1;jettySize=auto;html=1;exitX=0;exitY=0;exitDx=0;exitDy=0;entryX=0.75;entryY=0;entryDx=0;entryDy=0;endArrow=diamondThin;endFill=1;" parent="1" source="Mxky3zlpcd0uLPRcEJlR-31" target="Mxky3zlpcd0uLPRcEJlR-1" edge="1">
          <mxGeometry relative="1" as="geometry">
            <Array as="points">
              <mxPoint x="1650" y="-45" />
              <mxPoint x="1100" y="-45" />
              <mxPoint x="1100" y="-150" />
              <mxPoint x="553" y="-150" />
            </Array>
          </mxGeometry>
        </mxCell>
        <mxCell id="Mxky3zlpcd0uLPRcEJlR-31" value="CommonGoal" style="swimlane;fontStyle=1;align=center;verticalAlign=top;childLayout=stackLayout;horizontal=1;startSize=40;horizontalStack=0;resizeParent=1;resizeParentMax=0;resizeLast=0;collapsible=1;marginBottom=0;whiteSpace=wrap;html=1;fillColor=default;" parent="1" vertex="1">
          <mxGeometry x="1650" y="-120" width="250" height="140" as="geometry" />
        </mxCell>
        <mxCell id="Mxky3zlpcd0uLPRcEJlR-32" value="- redeemedNumber: int" style="text;strokeColor=none;fillColor=default;align=left;verticalAlign=top;spacingLeft=4;spacingRight=4;overflow=hidden;rotatable=0;points=[[0,0.5],[1,0.5]];portConstraint=eastwest;whiteSpace=wrap;html=1;" parent="Mxky3zlpcd0uLPRcEJlR-31" vertex="1">
          <mxGeometry y="40" width="250" height="40" as="geometry" />
        </mxCell>
        <mxCell id="Mxky3zlpcd0uLPRcEJlR-33" value="" style="line;strokeWidth=1;fillColor=default;align=left;verticalAlign=middle;spacingTop=-1;spacingLeft=3;spacingRight=3;rotatable=0;labelPosition=right;points=[];portConstraint=eastwest;strokeColor=inherit;" parent="Mxky3zlpcd0uLPRcEJlR-31" vertex="1">
          <mxGeometry y="80" width="250" height="8" as="geometry" />
        </mxCell>
        <mxCell id="Mxky3zlpcd0uLPRcEJlR-34" value="+ checkRequirements(): Boolean&lt;br&gt;+ getRedeemedNumber(): int&amp;nbsp;&lt;br&gt;+ increaseRedeemedNumber(): void" style="text;strokeColor=none;fillColor=default;align=left;verticalAlign=top;spacingLeft=4;spacingRight=4;overflow=hidden;rotatable=0;points=[[0,0.5],[1,0.5]];portConstraint=eastwest;whiteSpace=wrap;html=1;" parent="Mxky3zlpcd0uLPRcEJlR-31" vertex="1">
          <mxGeometry y="88" width="250" height="52" as="geometry" />
        </mxCell>
        <mxCell id="Mxky3zlpcd0uLPRcEJlR-38" value="Player" style="swimlane;fontStyle=1;align=center;verticalAlign=top;childLayout=stackLayout;horizontal=1;startSize=26;horizontalStack=0;resizeParent=1;resizeParentMax=0;resizeLast=0;collapsible=1;marginBottom=0;whiteSpace=wrap;html=1;" parent="1" vertex="1">
          <mxGeometry x="300" y="490" width="350" height="410" as="geometry" />
        </mxCell>
        <mxCell id="Z1P8TGeqZuuGpUr6qu0I-7" style="edgeStyle=orthogonalEdgeStyle;rounded=0;orthogonalLoop=1;jettySize=auto;html=1;exitX=0;exitY=0.5;exitDx=0;exitDy=0;entryX=0;entryY=0.5;entryDx=0;entryDy=0;" parent="Mxky3zlpcd0uLPRcEJlR-38" source="Mxky3zlpcd0uLPRcEJlR-41" target="Mxky3zlpcd0uLPRcEJlR-41" edge="1">
          <mxGeometry relative="1" as="geometry" />
        </mxCell>
        <mxCell id="Mxky3zlpcd0uLPRcEJlR-39" value="&lt;u&gt;- position: int&lt;br&gt;&lt;/u&gt;&lt;u style=&quot;border-color: var(--border-color);&quot;&gt;- nickname: String&lt;/u&gt;&lt;br&gt;- points: int&lt;br&gt;- temporaryTiles: ArrayList&amp;lt;Tile&amp;gt;&amp;nbsp;&amp;nbsp;&lt;br&gt;- commonGoalRedeemed: ArrayList&amp;lt;Boolean&amp;gt;&lt;br&gt;- personalGoal: PersonalGoal&lt;br&gt;- shelf: Shelf" style="text;strokeColor=none;fillColor=none;align=left;verticalAlign=top;spacingLeft=4;spacingRight=4;overflow=hidden;rotatable=0;points=[[0,0.5],[1,0.5]];portConstraint=eastwest;whiteSpace=wrap;html=1;" parent="Mxky3zlpcd0uLPRcEJlR-38" vertex="1">
          <mxGeometry y="26" width="350" height="114" as="geometry" />
        </mxCell>
        <mxCell id="Mxky3zlpcd0uLPRcEJlR-40" value="" style="line;strokeWidth=1;fillColor=none;align=left;verticalAlign=middle;spacingTop=-1;spacingLeft=3;spacingRight=3;rotatable=0;labelPosition=right;points=[];portConstraint=eastwest;strokeColor=inherit;" parent="Mxky3zlpcd0uLPRcEJlR-38" vertex="1">
          <mxGeometry y="140" width="350" height="8" as="geometry" />
        </mxCell>
        <mxCell id="Mxky3zlpcd0uLPRcEJlR-41" value="+ getPosition(): int&lt;br&gt;+ getNickname(): String&lt;br&gt;+ getPoints(): int&lt;br&gt;+ getShelf(): Shelf&lt;br&gt;+ getPersonalGoal(): PersonalGoal&lt;br&gt;+ getTemporaryTiles(): arraylist&amp;lt;Tile&amp;gt;&lt;br&gt;+ isCommonGoalRedeemed(int): boolean&lt;br&gt;+ setShelf(Shelf): void&lt;br style=&quot;border-color: var(--border-color);&quot;&gt;+ setPoints(int): void&lt;br style=&quot;border-color: var(--border-color);&quot;&gt;+ setPersonalGoal(PersonalGoal): void&lt;br&gt;+ setCommonGoalRedeemed(Boolean, int): void&lt;br&gt;+ setTemporaryTiles(arrayList&amp;lt;Tile&amp;gt;): void&lt;br&gt;+ addTemporaryTile(Tile): void&lt;br style=&quot;border-color: var(--border-color);&quot;&gt;+ selectTemporaryTile(int): Tile&lt;br&gt;+ tryPersonalGoal(): PersonalGoal&lt;br&gt;+ removeTemporaryTile(Tile): void&lt;br&gt;+ clearTemporaryTiles(): void" style="text;strokeColor=none;fillColor=none;align=left;verticalAlign=top;spacingLeft=4;spacingRight=4;overflow=hidden;rotatable=0;points=[[0,0.5],[1,0.5]];portConstraint=eastwest;whiteSpace=wrap;html=1;" parent="Mxky3zlpcd0uLPRcEJlR-38" vertex="1">
          <mxGeometry y="148" width="350" height="262" as="geometry" />
        </mxCell>
        <mxCell id="Mxky3zlpcd0uLPRcEJlR-42" value="" style="endArrow=diamondThin;endFill=1;html=1;edgeStyle=orthogonalEdgeStyle;align=left;verticalAlign=top;rounded=0;exitX=0.5;exitY=0;exitDx=0;exitDy=0;entryX=0.549;entryY=1.006;entryDx=0;entryDy=0;entryPerimeter=0;" parent="1" source="Mxky3zlpcd0uLPRcEJlR-38" target="Mxky3zlpcd0uLPRcEJlR-4" edge="1">
          <mxGeometry x="-0.913" y="-5" relative="1" as="geometry">
            <mxPoint x="420" y="240" as="sourcePoint" />
            <mxPoint x="464" y="350" as="targetPoint" />
            <mxPoint as="offset" />
            <Array as="points">
              <mxPoint x="475" y="400" />
              <mxPoint x="474" y="400" />
            </Array>
          </mxGeometry>
        </mxCell>
        <mxCell id="Mxky3zlpcd0uLPRcEJlR-43" value="2...4" style="edgeLabel;resizable=0;html=1;align=left;verticalAlign=bottom;" parent="Mxky3zlpcd0uLPRcEJlR-42" connectable="0" vertex="1">
          <mxGeometry x="-1" relative="1" as="geometry" />
        </mxCell>
        <mxCell id="Z1P8TGeqZuuGpUr6qu0I-5" value="&lt;p style=&quot;margin:0px;margin-top:4px;text-align:center;&quot;&gt;&lt;i&gt;&amp;lt;&amp;lt;Enumeration&amp;gt;&amp;gt;&lt;/i&gt;&lt;/p&gt;&lt;p style=&quot;margin:0px;margin-top:4px;text-align:center;&quot;&gt;&lt;i&gt;&lt;b&gt;TilesEnum&lt;/b&gt;&lt;/i&gt;&lt;br&gt;&lt;/p&gt;&lt;p style=&quot;margin:0px;margin-left:4px;&quot;&gt;&amp;nbsp;CATS&lt;/p&gt;&lt;p style=&quot;margin:0px;margin-left:4px;&quot;&gt;&amp;nbsp;BOOKS&lt;/p&gt;&lt;p style=&quot;margin:0px;margin-left:4px;&quot;&gt;&amp;nbsp;GAMES&lt;/p&gt;&lt;p style=&quot;margin:0px;margin-left:4px;&quot;&gt;&amp;nbsp;FRAMES&lt;/p&gt;&lt;p style=&quot;margin:0px;margin-left:4px;&quot;&gt;&amp;nbsp;TROPHIES&lt;/p&gt;&lt;p style=&quot;margin:0px;margin-left:4px;&quot;&gt;&amp;nbsp;PLANTS&lt;/p&gt;&lt;p style=&quot;margin:0px;margin-left:4px;&quot;&gt;&amp;nbsp;EMPTY&lt;/p&gt;&lt;p style=&quot;margin:0px;margin-left:4px;&quot;&gt;&amp;nbsp;UNUSED&lt;/p&gt;" style="verticalAlign=top;align=left;overflow=fill;fontSize=12;fontFamily=Helvetica;html=1;whiteSpace=wrap;" parent="1" vertex="1">
          <mxGeometry x="-320" y="450" width="170" height="160" as="geometry" />
        </mxCell>
        <mxCell id="EzJUuA46leq047YBjK1z-2" value="Model" style="text;html=1;strokeColor=none;fillColor=none;align=center;verticalAlign=middle;whiteSpace=wrap;rounded=0;" parent="1" vertex="1">
          <mxGeometry x="-310" y="-190" width="30" height="10" as="geometry" />
        </mxCell>
        <mxCell id="AMuZGpQVMHgPtwnpilzj-1" value="Bag" style="swimlane;fontStyle=1;align=center;verticalAlign=top;childLayout=stackLayout;horizontal=1;startSize=26;horizontalStack=0;resizeParent=1;resizeParentMax=0;resizeLast=0;collapsible=1;marginBottom=0;whiteSpace=wrap;html=1;" parent="1" vertex="1">
          <mxGeometry x="710" y="530" width="160" height="130" as="geometry" />
        </mxCell>
        <mxCell id="AMuZGpQVMHgPtwnpilzj-2" value="- bag: ArrayList&amp;lt;Tile&amp;gt;" style="text;strokeColor=none;fillColor=none;align=left;verticalAlign=top;spacingLeft=4;spacingRight=4;overflow=hidden;rotatable=0;points=[[0,0.5],[1,0.5]];portConstraint=eastwest;whiteSpace=wrap;html=1;" parent="AMuZGpQVMHgPtwnpilzj-1" vertex="1">
          <mxGeometry y="26" width="160" height="26" as="geometry" />
        </mxCell>
        <mxCell id="AMuZGpQVMHgPtwnpilzj-3" value="" style="line;strokeWidth=1;fillColor=none;align=left;verticalAlign=middle;spacingTop=-1;spacingLeft=3;spacingRight=3;rotatable=0;labelPosition=right;points=[];portConstraint=eastwest;strokeColor=inherit;" parent="AMuZGpQVMHgPtwnpilzj-1" vertex="1">
          <mxGeometry y="52" width="160" height="8" as="geometry" />
        </mxCell>
        <mxCell id="AMuZGpQVMHgPtwnpilzj-4" value="+ getBagSize(): int&lt;br&gt;+ getBag(): ArrayList&amp;lt;Tile&amp;gt;&lt;br style=&quot;border-color: var(--border-color);&quot;&gt;+ pop(): Tiles&lt;br&gt;+ clone(): Object" style="text;strokeColor=none;fillColor=none;align=left;verticalAlign=top;spacingLeft=4;spacingRight=4;overflow=hidden;rotatable=0;points=[[0,0.5],[1,0.5]];portConstraint=eastwest;whiteSpace=wrap;html=1;" parent="AMuZGpQVMHgPtwnpilzj-1" vertex="1">
          <mxGeometry y="60" width="160" height="70" as="geometry" />
        </mxCell>
        <mxCell id="AMuZGpQVMHgPtwnpilzj-5" value="" style="endArrow=diamondThin;endFill=1;html=1;edgeStyle=orthogonalEdgeStyle;align=left;verticalAlign=top;rounded=0;exitX=0;exitY=0.5;exitDx=0;exitDy=0;" parent="1" source="AMuZGpQVMHgPtwnpilzj-2" edge="1">
          <mxGeometry x="-1" relative="1" as="geometry">
            <mxPoint x="500" y="310" as="sourcePoint" />
            <mxPoint x="740" y="140" as="targetPoint" />
            <Array as="points">
              <mxPoint x="700" y="569" />
              <mxPoint x="700" y="140" />
            </Array>
          </mxGeometry>
        </mxCell>
        <mxCell id="AMuZGpQVMHgPtwnpilzj-6" value="1" style="edgeLabel;resizable=0;html=1;align=left;verticalAlign=bottom;" parent="AMuZGpQVMHgPtwnpilzj-5" connectable="0" vertex="1">
          <mxGeometry x="-1" relative="1" as="geometry">
            <mxPoint x="-10" as="offset" />
          </mxGeometry>
        </mxCell>
        <mxCell id="mHvKu2w7ndSmzs79eD4w-6" value="Chat" style="swimlane;fontStyle=1;align=center;verticalAlign=top;childLayout=stackLayout;horizontal=1;startSize=26;horizontalStack=0;resizeParent=1;resizeParentMax=0;resizeLast=0;collapsible=1;marginBottom=0;whiteSpace=wrap;html=1;" parent="1" vertex="1">
          <mxGeometry x="-320" y="-140" width="210" height="130" as="geometry" />
        </mxCell>
        <mxCell id="mHvKu2w7ndSmzs79eD4w-7" value="- chat: ArrayList&amp;lt;Message&amp;gt;" style="text;strokeColor=none;fillColor=none;align=left;verticalAlign=top;spacingLeft=4;spacingRight=4;overflow=hidden;rotatable=0;points=[[0,0.5],[1,0.5]];portConstraint=eastwest;whiteSpace=wrap;html=1;" parent="mHvKu2w7ndSmzs79eD4w-6" vertex="1">
          <mxGeometry y="26" width="210" height="26" as="geometry" />
        </mxCell>
        <mxCell id="mHvKu2w7ndSmzs79eD4w-8" value="" style="line;strokeWidth=1;fillColor=none;align=left;verticalAlign=middle;spacingTop=-1;spacingLeft=3;spacingRight=3;rotatable=0;labelPosition=right;points=[];portConstraint=eastwest;strokeColor=inherit;" parent="mHvKu2w7ndSmzs79eD4w-6" vertex="1">
          <mxGeometry y="52" width="210" height="8" as="geometry" />
        </mxCell>
        <mxCell id="mHvKu2w7ndSmzs79eD4w-9" value="+ addChatLog(Message): void&lt;br&gt;+getChat(): ArrayList&amp;lt;Message&amp;gt;" style="text;strokeColor=none;fillColor=none;align=left;verticalAlign=top;spacingLeft=4;spacingRight=4;overflow=hidden;rotatable=0;points=[[0,0.5],[1,0.5]];portConstraint=eastwest;whiteSpace=wrap;html=1;" parent="mHvKu2w7ndSmzs79eD4w-6" vertex="1">
          <mxGeometry y="60" width="210" height="70" as="geometry" />
        </mxCell>
        <mxCell id="mHvKu2w7ndSmzs79eD4w-10" value="" style="endArrow=diamondThin;endFill=1;html=1;edgeStyle=orthogonalEdgeStyle;align=left;verticalAlign=top;rounded=0;exitX=1;exitY=0.5;exitDx=0;exitDy=0;" parent="1" source="mHvKu2w7ndSmzs79eD4w-7" edge="1">
          <mxGeometry x="-1" relative="1" as="geometry">
            <mxPoint x="160" y="10" as="sourcePoint" />
            <mxPoint x="260" y="-50" as="targetPoint" />
            <mxPoint as="offset" />
            <Array as="points">
              <mxPoint x="75" y="-101" />
              <mxPoint x="260" y="-100" />
            </Array>
          </mxGeometry>
        </mxCell>
        <mxCell id="mHvKu2w7ndSmzs79eD4w-11" value="1" style="edgeLabel;resizable=0;html=1;align=left;verticalAlign=bottom;" parent="mHvKu2w7ndSmzs79eD4w-10" connectable="0" vertex="1">
          <mxGeometry x="-1" relative="1" as="geometry" />
        </mxCell>
        <mxCell id="3VdPLMrZcKA6GoJQrmLX-1" value="" style="shape=folder;fontStyle=1;spacingTop=10;tabWidth=40;tabHeight=14;tabPosition=left;html=1;whiteSpace=wrap;fillColor=none;" parent="1" vertex="1">
          <mxGeometry x="-320" y="-1740" width="530" height="1340" as="geometry" />
        </mxCell>
        <mxCell id="3VdPLMrZcKA6GoJQrmLX-2" value="Controller" style="text;html=1;strokeColor=none;fillColor=none;align=center;verticalAlign=middle;whiteSpace=wrap;rounded=0;" parent="1" vertex="1">
          <mxGeometry x="-310" y="-1720" width="60" height="30" as="geometry" />
        </mxCell>
        <mxCell id="3VdPLMrZcKA6GoJQrmLX-12" value="&lt;p style=&quot;margin:0px;margin-top:4px;text-align:center;&quot;&gt;&lt;b&gt;Engine&lt;/b&gt;&lt;/p&gt;&lt;hr size=&quot;1&quot;&gt;&lt;p style=&quot;margin:0px;margin-left:4px;&quot;&gt;- game: Game&lt;/p&gt;&lt;p style=&quot;margin:0px;margin-left:4px;&quot;&gt;- clientObserverHashMap: HashMap&amp;lt;Client, Observer&amp;lt;Game, ResponseMessage&amp;gt;&amp;gt;&lt;/p&gt;&lt;p style=&quot;margin:0px;margin-left:4px;&quot;&gt;- client_ID: OneToOneHashmap&amp;lt;Client, String&amp;gt;&lt;/p&gt;&lt;p style=&quot;margin:0px;margin-left:4px;&quot;&gt;- ID_Nicks: OneToOneHashmap&amp;lt;String, String&amp;gt;&lt;br&gt;&lt;/p&gt;&lt;p style=&quot;margin:0px;margin-left:4px;&quot;&gt;- counter: int&lt;/p&gt;&lt;p style=&quot;margin:0px;margin-left:4px;&quot;&gt;- saveGameStatus: SaveGameStatus&lt;/p&gt;&lt;p style=&quot;margin:0px;margin-left:4px;&quot;&gt;- freeNamesUsedInLastGame: ArrayList&amp;lt;String&amp;gt;&lt;/p&gt;&lt;p style=&quot;margin:0px;margin-left:4px;&quot;&gt;- loadFromFile: boolean&lt;/p&gt;&lt;p style=&quot;margin:0px;margin-left:4px;&quot;&gt;- playerReconnect: boolean&lt;/p&gt;&lt;p style=&quot;margin:0px;margin-left:4px;&quot;&gt;- firstClient: String&lt;/p&gt;&lt;p style=&quot;margin:0px;margin-left:4px;&quot;&gt;- IDToKill: ArrayList&amp;lt;String&amp;gt;&lt;/p&gt;&lt;p style=&quot;margin:0px;margin-left:4px;&quot;&gt;- optionChoosed: boolean&lt;/p&gt;&lt;hr size=&quot;1&quot;&gt;&lt;p style=&quot;margin:0px;margin-left:4px;&quot;&gt;+ getOptionChoosed(): boolean&lt;/p&gt;&lt;p style=&quot;margin:0px;margin-left:4px;&quot;&gt;+ setOptionChoosed(boolean): void&lt;/p&gt;&lt;p style=&quot;margin:0px;margin-left:4px;&quot;&gt;+ getFreeNamesUsedInLastGame(): ArrayList&amp;lt;String&amp;gt;&lt;/p&gt;&lt;p style=&quot;margin:0px;margin-left:4px;&quot;&gt;+ getLoadFromFile(): boolean&lt;/p&gt;&lt;p style=&quot;margin:0px;margin-left:4px;&quot;&gt;+ getFirstClient(): String&lt;/p&gt;&lt;p style=&quot;margin:0px;margin-left:4px;&quot;&gt;+ getPlayerReconnection(): boolean&lt;/p&gt;&lt;p style=&quot;margin:0px;margin-left:4px;&quot;&gt;+ getClients_ID(): OneToOneHashmap&amp;lt;Client, String&amp;gt;&lt;/p&gt;&lt;p style=&quot;margin:0px;margin-left:4px;&quot;&gt;+ getID_Nicks(): OneToOneHashmap&amp;lt;String, String&amp;gt;&lt;/p&gt;&lt;p style=&quot;margin:0px;margin-left:4px;&quot;&gt;+ getClientObserverHashMap(): HashMap&amp;lt;Client, Observer&amp;lt;Game, ResponseMessage&amp;gt;&amp;gt;&lt;/p&gt;&lt;p style=&quot;margin:0px;margin-left:4px;&quot;&gt;+ getGame(): Game&lt;/p&gt;&lt;p style=&quot;margin:0px;margin-left:4px;&quot;&gt;+ getPlayerFromNickname(Sring): Player&lt;/p&gt;&lt;p style=&quot;margin:0px;margin-left:4px;&quot;&gt;+ saveFileFound(): boolean&lt;/p&gt;&lt;p style=&quot;margin:0px;margin-left:4px;&quot;&gt;+ retrieveGame(): Game&lt;/p&gt;&lt;p style=&quot;margin:0px;margin-left:4px;&quot;&gt;+ setGame(Game): void&lt;/p&gt;&lt;p style=&quot;margin:0px;margin-left:4px;&quot;&gt;+ getSaveGameStatus(): SaveGameStatus&lt;/p&gt;&lt;p style=&quot;margin:0px;margin-left:4px;&quot;&gt;+ setSaveGameStatus(SaveGameStatus): void&lt;/p&gt;&lt;p style=&quot;margin:0px;margin-left:4px;&quot;&gt;+ playerJoin(String): void&lt;br&gt;&lt;/p&gt;&lt;p style=&quot;margin:0px;margin-left:4px;&quot;&gt;+ smallJoin(String): void&lt;/p&gt;&lt;p style=&quot;margin:0px;margin-left:4px;&quot;&gt;- killingSpree(ArrayList&amp;lt;String&amp;gt;): void&lt;/p&gt;&lt;p style=&quot;margin:0px;margin-left:4px;&quot;&gt;+ startGame(): void&lt;/p&gt;&lt;p style=&quot;margin:0px;margin-left:4px;&quot;&gt;+ selectTiles(String, Point): void&lt;/p&gt;&lt;p style=&quot;margin:0px;margin-left:4px;&quot;&gt;+ deselectTiles(Point): void&lt;/p&gt;&lt;p style=&quot;margin:0px;margin-left:4px;&quot;&gt;- selectionPossible(): boolean&lt;/p&gt;&lt;p style=&quot;margin:0px;margin-left:4px;&quot;&gt;+ confirmSelectedTiles(String): void&lt;/p&gt;&lt;p style=&quot;margin:0px;margin-left:4px;&quot;&gt;+ selectColumn(String, Integer): void&lt;/p&gt;&lt;p style=&quot;margin:0px;margin-left:4px;&quot;&gt;- deselectColumn(): void&lt;/p&gt;&lt;p style=&quot;margin:0px;margin-left:4px;&quot;&gt;- sendShelfAndTiles(String): void&lt;/p&gt;&lt;p style=&quot;margin:0px;margin-left:4px;&quot;&gt;+ placeTiles(String, Integer): void&lt;/p&gt;&lt;p style=&quot;margin:0px;margin-left:4px;&quot;&gt;+ chekcCommonGoals(): void&lt;br&gt;&lt;/p&gt;&lt;p style=&quot;margin:0px;margin-left:4px;&quot;&gt;+ sendResults(): void&lt;/p&gt;&lt;p style=&quot;margin:0px;margin-left:4px;&quot;&gt;+ checkPersonalGoal(): void&lt;br&gt;&lt;/p&gt;&lt;p style=&quot;margin:0px;margin-left:4px;&quot;&gt;- tileToTilesEnum(Shelf): TilesEnum[][]&lt;br&gt;&lt;/p&gt;&lt;p style=&quot;margin:0px;margin-left:4px;&quot;&gt;+ checkEndGameGoal(): void&lt;br&gt;&lt;/p&gt;&lt;p style=&quot;margin:0px;margin-left:4px;&quot;&gt;- costomShelfIterator(ArrayList&amp;lt;Point&amp;gt;, Shelf, boolean[][], TilesEnum, int, int): int&lt;br&gt;&lt;/p&gt;&lt;p style=&quot;margin:0px;margin-left:4px;&quot;&gt;+ endTurn(String, String): void&lt;br&gt;&lt;/p&gt;&lt;p style=&quot;margin:0px;margin-left:4px;&quot;&gt;+ waitFor10Seconds(): void&lt;/p&gt;&lt;p style=&quot;margin:0px;margin-left:4px;&quot;&gt;- dcEndTurn(String, String): void&lt;/p&gt;&lt;p style=&quot;margin:0px;margin-left:4px;&quot;&gt;+ endTurnForced(): void&lt;/p&gt;&lt;p style=&quot;margin:0px;margin-left:4px;&quot;&gt;+ checkEndGame(String, String): void&lt;/p&gt;&lt;p style=&quot;margin:0px;margin-left:4px;&quot;&gt;- fullShelf(Shelf): boolean&lt;/p&gt;&lt;p style=&quot;margin:0px;margin-left:4px;&quot;&gt;+ endGame(): void&lt;/p&gt;&lt;p style=&quot;margin:0px;margin-left:4px;&quot;&gt;+ sendChat(String, String): void&lt;/p&gt;&lt;p style=&quot;margin:0px;margin-left:4px;&quot;&gt;+ sayInChat(String, String, String, String): void&lt;/p&gt;&lt;p style=&quot;margin:0px;margin-left:4px;&quot;&gt;+ removeObserver(String, int): void&lt;/p&gt;&lt;p style=&quot;margin:0px;margin-left:4px;&quot;&gt;+ everlastingKill(): void&lt;/p&gt;&lt;p style=&quot;margin:0px;margin-left:4px;&quot;&gt;- invalidNickname(String)&lt;/p&gt;&lt;p style=&quot;margin:0px;margin-left:4px;&quot;&gt;- getInactivePlayers(): ArrayList&amp;lt;Player&amp;gt;&lt;/p&gt;&lt;p style=&quot;margin:0px;margin-left:4px;&quot;&gt;- getActivePlayers(): ArrayList&amp;lt;Player&amp;gt;&lt;/p&gt;&lt;p style=&quot;margin:0px;margin-left:4px;&quot;&gt;+ fillBoard(): void&lt;/p&gt;&lt;p style=&quot;margin:0px;margin-left:4px;&quot;&gt;- isBoardValid(): boolean&lt;/p&gt;&lt;p style=&quot;margin:0px;margin-left:4px;&quot;&gt;-isEmptyOrUnusedBoard(int, int): boolean&lt;/p&gt;&lt;p style=&quot;margin:0px;margin-left:4px;&quot;&gt;- setGameFromSave(Game): void&lt;/p&gt;&lt;p style=&quot;margin:0px;margin-left:4px;&quot;&gt;+ initializeFromSave(String): void&lt;/p&gt;&lt;p style=&quot;margin:0px;margin-left:4px;&quot;&gt;- askLoadGame(String): void&lt;/p&gt;&lt;p style=&quot;margin:0px;margin-left:4px;&quot;&gt;- loadFromFile(String, String): void&lt;/p&gt;&lt;p style=&quot;margin:0px;margin-left:4px;&quot;&gt;- initializePlayer(SerializableInput): void&lt;/p&gt;&lt;p style=&quot;margin:0px;margin-left:4px;&quot;&gt;+ setIsActiveFromClient(Client, Boolean): void&lt;/p&gt;&lt;p style=&quot;margin:0px;margin-left:4px;&quot;&gt;+getNickFromClient(Client): String&lt;/p&gt;&lt;p style=&quot;margin:0px;margin-left:4px;&quot;&gt;+ takeNick(SerializableInput): void&lt;/p&gt;&lt;p style=&quot;margin:0px;margin-left:4px;&quot;&gt;- askNumOfPlayers(String): void&lt;/p&gt;&lt;p style=&quot;margin:0px;margin-left:4px;&quot;&gt;+ Connect(String): void&lt;/p&gt;&lt;p style=&quot;margin:0px;margin-left:4px;&quot;&gt;- startGameFromFile(): void&lt;/p&gt;&lt;p style=&quot;margin:0px;margin-left:4px;&quot;&gt;+ setNumberOfPlayers(int, String): void&lt;/p&gt;&lt;p style=&quot;margin:0px;margin-left:4px;&quot;&gt;+ boardTransfer(String): void&lt;/p&gt;&lt;p style=&quot;margin:0px;margin-left:4px;&quot;&gt;+ shelfTransfer(String, String): void&lt;/p&gt;&lt;p style=&quot;margin:0px;margin-left:4px;&quot;&gt;+ shelfTransferAll(String ID): void&lt;/p&gt;&lt;p style=&quot;margin:0px;margin-left:4px;&quot;&gt;+ personalGoalTransfer(String, String): void&lt;/p&gt;&lt;p style=&quot;margin:0px;margin-left:4px;&quot;&gt;+ temporaryTilesTransfer(String): void&lt;/p&gt;&lt;p style=&quot;margin:0px;margin-left:4px;&quot;&gt;+ commonGoalTransfer(String): void&lt;/p&gt;&lt;p style=&quot;margin:0px;margin-left:4px;&quot;&gt;+ currentPlayerTransfer(String): void&lt;/p&gt;&lt;p style=&quot;margin:0px;margin-left:4px;&quot;&gt;+ reconnectionCheck(String): void&lt;/p&gt;&lt;p style=&quot;margin:0px;margin-left:4px;&quot;&gt;+ notActive(SerializableInput): void&lt;/p&gt;&lt;p style=&quot;margin:0px;margin-left:4px;&quot;&gt;- randomColors(): HashMap&amp;lt;String, String&amp;gt;&lt;/p&gt;&lt;p style=&quot;margin:0px;margin-left:4px;&quot;&gt;&lt;br&gt;&lt;/p&gt;&lt;p style=&quot;margin:0px;margin-left:4px;&quot;&gt;&lt;br&gt;&lt;/p&gt;" style="verticalAlign=top;align=left;overflow=fill;fontSize=12;fontFamily=Helvetica;html=1;whiteSpace=wrap;fillColor=none;" parent="1" vertex="1">
          <mxGeometry x="-310" y="-1690" width="510" height="1270" as="geometry" />
        </mxCell>
        <mxCell id="9U84HWBfrnvw68wfZRjt-1" value="Uses" style="endArrow=open;endSize=12;dashed=1;html=1;rounded=0;exitX=0.046;exitY=0.014;exitDx=0;exitDy=0;exitPerimeter=0;entryX=0.264;entryY=0.997;entryDx=0;entryDy=0;entryPerimeter=0;" parent="1" source="EzJUuA46leq047YBjK1z-1" target="3VdPLMrZcKA6GoJQrmLX-1" edge="1">
          <mxGeometry x="0.2308" width="160" relative="1" as="geometry">
            <mxPoint x="-280" y="-70" as="sourcePoint" />
            <mxPoint x="315" y="-340" as="targetPoint" />
            <Array as="points" />
            <mxPoint as="offset" />
          </mxGeometry>
        </mxCell>
        <mxCell id="7OJYqAJJIA7WfqFcGEee-1" value="SaveGameStatus" style="swimlane;fontStyle=1;align=center;verticalAlign=top;childLayout=stackLayout;horizontal=1;startSize=26;horizontalStack=0;resizeParent=1;resizeParentMax=0;resizeLast=0;collapsible=1;marginBottom=0;whiteSpace=wrap;html=1;" parent="1" vertex="1">
          <mxGeometry x="720" y="-130" width="360" height="120" as="geometry" />
        </mxCell>
        <mxCell id="7OJYqAJJIA7WfqFcGEee-2" value="- game: Game&lt;br&gt;- filepath: String" style="text;strokeColor=none;fillColor=none;align=left;verticalAlign=top;spacingLeft=4;spacingRight=4;overflow=hidden;rotatable=0;points=[[0,0.5],[1,0.5]];portConstraint=eastwest;whiteSpace=wrap;html=1;" parent="7OJYqAJJIA7WfqFcGEee-1" vertex="1">
          <mxGeometry y="26" width="360" height="34" as="geometry" />
        </mxCell>
        <mxCell id="7OJYqAJJIA7WfqFcGEee-3" value="" style="line;strokeWidth=1;fillColor=none;align=left;verticalAlign=middle;spacingTop=-1;spacingLeft=3;spacingRight=3;rotatable=0;labelPosition=right;points=[];portConstraint=eastwest;strokeColor=inherit;" parent="7OJYqAJJIA7WfqFcGEee-1" vertex="1">
          <mxGeometry y="60" width="360" height="8" as="geometry" />
        </mxCell>
        <mxCell id="7OJYqAJJIA7WfqFcGEee-4" value="+ gameToJson(): String&lt;br&gt;+ saveGame(): void&lt;br&gt;+ retrieveGame(): Game" style="text;strokeColor=none;fillColor=none;align=left;verticalAlign=top;spacingLeft=4;spacingRight=4;overflow=hidden;rotatable=0;points=[[0,0.5],[1,0.5]];portConstraint=eastwest;whiteSpace=wrap;html=1;" parent="7OJYqAJJIA7WfqFcGEee-1" vertex="1">
          <mxGeometry y="68" width="360" height="52" as="geometry" />
        </mxCell>
        <mxCell id="zbtttQC591RZSIthjDI6-1" value="2" style="text;html=1;strokeColor=none;fillColor=none;align=center;verticalAlign=middle;whiteSpace=wrap;rounded=0;" parent="1" vertex="1">
          <mxGeometry x="1590" y="-70" width="60" height="30" as="geometry" />
        </mxCell>
        <mxCell id="zbtttQC591RZSIthjDI6-6" value="Tile" style="swimlane;fontStyle=1;align=center;verticalAlign=top;childLayout=stackLayout;horizontal=1;startSize=26;horizontalStack=0;resizeParent=1;resizeParentMax=0;resizeLast=0;collapsible=1;marginBottom=0;whiteSpace=wrap;html=1;" parent="1" vertex="1">
          <mxGeometry x="-320" y="304" width="160" height="110" as="geometry" />
        </mxCell>
        <mxCell id="zbtttQC591RZSIthjDI6-7" value="&lt;u&gt;- tile: TilesEnum&lt;br&gt;- imageNumber: int&lt;/u&gt;" style="text;strokeColor=none;fillColor=none;align=left;verticalAlign=top;spacingLeft=4;spacingRight=4;overflow=hidden;rotatable=0;points=[[0,0.5],[1,0.5]];portConstraint=eastwest;whiteSpace=wrap;html=1;" parent="zbtttQC591RZSIthjDI6-6" vertex="1">
          <mxGeometry y="26" width="160" height="34" as="geometry" />
        </mxCell>
        <mxCell id="zbtttQC591RZSIthjDI6-8" value="" style="line;strokeWidth=1;fillColor=none;align=left;verticalAlign=middle;spacingTop=-1;spacingLeft=3;spacingRight=3;rotatable=0;labelPosition=right;points=[];portConstraint=eastwest;strokeColor=inherit;" parent="zbtttQC591RZSIthjDI6-6" vertex="1">
          <mxGeometry y="60" width="160" height="8" as="geometry" />
        </mxCell>
        <mxCell id="zbtttQC591RZSIthjDI6-9" value="+ getTile(): TilesEnum&lt;br&gt;+ getImageNumber(): int" style="text;strokeColor=none;fillColor=none;align=left;verticalAlign=top;spacingLeft=4;spacingRight=4;overflow=hidden;rotatable=0;points=[[0,0.5],[1,0.5]];portConstraint=eastwest;whiteSpace=wrap;html=1;" parent="zbtttQC591RZSIthjDI6-6" vertex="1">
          <mxGeometry y="68" width="160" height="42" as="geometry" />
        </mxCell>
        <mxCell id="w6Hz3TkdubwKR5fxl2Tj-1" value="1" style="endArrow=open;html=1;endSize=12;startArrow=diamondThin;startSize=14;startFill=1;edgeStyle=orthogonalEdgeStyle;align=left;verticalAlign=bottom;rounded=0;exitX=0.75;exitY=1;exitDx=0;exitDy=0;entryX=0.25;entryY=0;entryDx=0;entryDy=0;" parent="1" source="3VdPLMrZcKA6GoJQrmLX-12" target="Mxky3zlpcd0uLPRcEJlR-1" edge="1">
          <mxGeometry x="-1" y="3" relative="1" as="geometry">
            <mxPoint x="-90" y="-330" as="sourcePoint" />
            <mxPoint x="70" y="-330" as="targetPoint" />
          </mxGeometry>
        </mxCell>
        <mxCell id="9WpMfCR_n4XsZXEiZ-4h-3" value="&lt;font style=&quot;font-size: 12px;&quot;&gt;CommonGoals&lt;/font&gt;" style="text;strokeColor=none;fillColor=none;html=1;fontSize=24;fontStyle=1;verticalAlign=middle;align=center;" parent="1" vertex="1">
          <mxGeometry x="1110" y="-160" width="100" height="40" as="geometry" />
        </mxCell>
        <mxCell id="o77QHmqQmNkal7PHkD5_-2" value="1" style="text;html=1;strokeColor=none;fillColor=none;align=center;verticalAlign=middle;whiteSpace=wrap;rounded=0;" parent="1" vertex="1">
          <mxGeometry x="1754" y="30" width="20" height="10" as="geometry" />
        </mxCell>
        <mxCell id="_N1UwID_5jC3FNQXrJoQ-82" style="edgeStyle=orthogonalEdgeStyle;rounded=0;orthogonalLoop=1;jettySize=auto;html=1;exitX=1;exitY=0.5;exitDx=0;exitDy=0;entryX=0;entryY=0.5;entryDx=0;entryDy=0;endArrow=diamondThin;endFill=1;" parent="1" source="Mxky3zlpcd0uLPRcEJlR-2" target="7OJYqAJJIA7WfqFcGEee-1" edge="1">
          <mxGeometry relative="1" as="geometry" />
        </mxCell>
        <mxCell id="XnbRa7-TdVYX6gBNCO99-1" value="&lt;p style=&quot;margin:0px;margin-top:4px;text-align:center;&quot;&gt;&lt;b&gt;Message&lt;/b&gt;&lt;/p&gt;&lt;hr size=&quot;1&quot;&gt;&lt;p style=&quot;margin:0px;margin-left:4px;&quot;&gt;- sender: Player&lt;br&gt;- content: String&lt;/p&gt;&lt;p style=&quot;margin:0px;margin-left:4px;&quot;&gt;- recipients: ArrayList&amp;lt;Player&amp;gt;&lt;/p&gt;&lt;hr size=&quot;1&quot;&gt;&lt;p style=&quot;margin:0px;margin-left:4px;&quot;&gt;+&amp;nbsp;setRecipients (ArrayList&amp;lt;Player&amp;gt;&lt;span style=&quot;background-color: initial;&quot;&gt;): void&lt;/span&gt;&lt;/p&gt;&lt;p style=&quot;margin:0px;margin-left:4px;&quot;&gt;+&amp;nbsp;getContent&lt;span style=&quot;background-color: initial;&quot;&gt;(): String&lt;/span&gt;&lt;/p&gt;&lt;p style=&quot;margin:0px;margin-left:4px;&quot;&gt;&lt;span style=&quot;background-color: initial;&quot;&gt;+&amp;nbsp;&lt;/span&gt;getRecipients(): ArrayList&amp;lt;Player&amp;gt;&lt;/p&gt;&lt;p style=&quot;margin:0px;margin-left:4px;&quot;&gt;+&amp;nbsp;getSender(): Player&lt;/p&gt;" style="verticalAlign=top;align=left;overflow=fill;fontSize=12;fontFamily=Helvetica;html=1;whiteSpace=wrap;" parent="1" vertex="1">
          <mxGeometry x="-220" y="80" width="250" height="150" as="geometry" />
        </mxCell>
        <mxCell id="XnbRa7-TdVYX6gBNCO99-4" value="" style="endArrow=diamondThin;endFill=1;html=1;edgeStyle=orthogonalEdgeStyle;align=left;verticalAlign=top;rounded=0;entryX=1.002;entryY=0.285;entryDx=0;entryDy=0;entryPerimeter=0;" parent="1" target="XnbRa7-TdVYX6gBNCO99-1" edge="1">
          <mxGeometry x="-1" relative="1" as="geometry">
            <mxPoint x="300" y="530" as="sourcePoint" />
            <mxPoint x="-0.020000000000003126" y="140" as="targetPoint" />
            <Array as="points">
              <mxPoint x="230" y="530" />
              <mxPoint x="230" y="123" />
            </Array>
          </mxGeometry>
        </mxCell>
        <mxCell id="XnbRa7-TdVYX6gBNCO99-6" value="" style="endArrow=diamondThin;endFill=1;html=1;edgeStyle=orthogonalEdgeStyle;align=left;verticalAlign=top;rounded=0;exitX=0.5;exitY=0;exitDx=0;exitDy=0;" parent="1" source="XnbRa7-TdVYX6gBNCO99-1" edge="1">
          <mxGeometry x="-1" relative="1" as="geometry">
            <mxPoint x="330" y="60" as="sourcePoint" />
            <mxPoint x="-110" y="-90" as="targetPoint" />
            <Array as="points">
              <mxPoint x="-90" y="80" />
              <mxPoint x="-90" y="-90" />
            </Array>
          </mxGeometry>
        </mxCell>
        <mxCell id="XnbRa7-TdVYX6gBNCO99-7" value="0...n" style="edgeLabel;resizable=0;html=1;align=left;verticalAlign=bottom;" parent="XnbRa7-TdVYX6gBNCO99-6" connectable="0" vertex="1">
          <mxGeometry x="-1" relative="1" as="geometry">
            <mxPoint x="15" y="-4" as="offset" />
          </mxGeometry>
        </mxCell>
        <mxCell id="Bs_YzykeCiTkUcpEXx2v-7" style="edgeStyle=orthogonalEdgeStyle;rounded=0;orthogonalLoop=1;jettySize=auto;html=1;exitX=0.5;exitY=0;exitDx=0;exitDy=0;entryX=0.48;entryY=1;entryDx=0;entryDy=0;entryPerimeter=0;endArrow=diamondThin;endFill=1;" parent="1" source="Bs_YzykeCiTkUcpEXx2v-1" target="Mxky3zlpcd0uLPRcEJlR-34" edge="1">
          <mxGeometry relative="1" as="geometry" />
        </mxCell>
        <mxCell id="Bs_YzykeCiTkUcpEXx2v-1" value="&amp;lt;&amp;lt;Abstract Class&amp;gt;&amp;gt;&lt;br&gt;CommonGoalStrategy" style="swimlane;fontStyle=1;align=center;verticalAlign=top;childLayout=stackLayout;horizontal=1;startSize=40;horizontalStack=0;resizeParent=1;resizeParentMax=0;resizeLast=0;collapsible=1;marginBottom=0;whiteSpace=wrap;html=1;" parent="1" vertex="1">
          <mxGeometry x="1640" y="60" width="260" height="130" as="geometry" />
        </mxCell>
        <mxCell id="Bs_YzykeCiTkUcpEXx2v-2" value="# numObjects: int&lt;br&gt;# strategyCode: int" style="text;strokeColor=none;fillColor=default;align=left;verticalAlign=top;spacingLeft=4;spacingRight=4;overflow=hidden;rotatable=0;points=[[0,0.5],[1,0.5]];portConstraint=eastwest;whiteSpace=wrap;html=1;" parent="Bs_YzykeCiTkUcpEXx2v-1" vertex="1">
          <mxGeometry y="40" width="260" height="40" as="geometry" />
        </mxCell>
        <mxCell id="Bs_YzykeCiTkUcpEXx2v-3" value="" style="line;strokeWidth=1;fillColor=default;align=left;verticalAlign=middle;spacingTop=-1;spacingLeft=3;spacingRight=3;rotatable=0;labelPosition=right;points=[];portConstraint=eastwest;strokeColor=inherit;" parent="Bs_YzykeCiTkUcpEXx2v-1" vertex="1">
          <mxGeometry y="80" width="260" height="8" as="geometry" />
        </mxCell>
        <mxCell id="Bs_YzykeCiTkUcpEXx2v-4" value="+ check(Shelf shelf): boolean&lt;br&gt;# differentTiles(ArrayList&amp;lt;TilesEnum&amp;gt; tiles): int" style="text;strokeColor=none;fillColor=default;align=left;verticalAlign=top;spacingLeft=4;spacingRight=4;overflow=hidden;rotatable=0;points=[[0,0.5],[1,0.5]];portConstraint=eastwest;whiteSpace=wrap;html=1;" parent="Bs_YzykeCiTkUcpEXx2v-1" vertex="1">
          <mxGeometry y="88" width="260" height="42" as="geometry" />
        </mxCell>
        <mxCell id="Bs_YzykeCiTkUcpEXx2v-16" style="edgeStyle=orthogonalEdgeStyle;rounded=0;orthogonalLoop=1;jettySize=auto;html=1;exitX=0.5;exitY=0;exitDx=0;exitDy=0;entryX=0.901;entryY=0.988;entryDx=0;entryDy=0;entryPerimeter=0;endArrow=block;endFill=0;" parent="1" source="Bs_YzykeCiTkUcpEXx2v-8" target="Bs_YzykeCiTkUcpEXx2v-4" edge="1">
          <mxGeometry relative="1" as="geometry" />
        </mxCell>
        <mxCell id="Bs_YzykeCiTkUcpEXx2v-8" value="&lt;p style=&quot;margin:0px;margin-top:4px;text-align:center;&quot;&gt;&lt;b&gt;Triangle&lt;/b&gt;&lt;/p&gt;&lt;hr size=&quot;1&quot;&gt;&lt;p style=&quot;margin:0px;margin-left:4px;&quot;&gt;&lt;br&gt;&lt;/p&gt;&lt;hr size=&quot;1&quot;&gt;&lt;p style=&quot;margin:0px;margin-left:4px;&quot;&gt;+ check(Shelf shelf): boolean&lt;br&gt;&lt;/p&gt;&lt;p style=&quot;margin:0px;margin-left:4px;&quot;&gt;- columnsHeights(Shelf shelf): int[]&lt;/p&gt;&lt;p style=&quot;margin:0px;margin-left:4px;&quot;&gt;- ascending(int height[]):&amp;nbsp; boolean&lt;/p&gt;&lt;p style=&quot;margin:0px;margin-left:4px;&quot;&gt;- descending(int height[]):&amp;nbsp; boolean&lt;br&gt;&lt;/p&gt;" style="verticalAlign=top;align=left;overflow=fill;fontSize=12;fontFamily=Helvetica;html=1;whiteSpace=wrap;" parent="1" vertex="1">
          <mxGeometry x="2215" y="240" width="295" height="120" as="geometry" />
        </mxCell>
        <mxCell id="Bs_YzykeCiTkUcpEXx2v-19" style="edgeStyle=orthogonalEdgeStyle;rounded=0;orthogonalLoop=1;jettySize=auto;html=1;exitX=0.5;exitY=0;exitDx=0;exitDy=0;entryX=0.425;entryY=0.988;entryDx=0;entryDy=0;entryPerimeter=0;endArrow=block;endFill=0;" parent="1" source="Bs_YzykeCiTkUcpEXx2v-9" target="Bs_YzykeCiTkUcpEXx2v-4" edge="1">
          <mxGeometry relative="1" as="geometry">
            <Array as="points">
              <mxPoint x="1575" y="390" />
              <mxPoint x="1751" y="390" />
            </Array>
          </mxGeometry>
        </mxCell>
        <mxCell id="Bs_YzykeCiTkUcpEXx2v-9" value="&lt;p style=&quot;margin:0px;margin-top:4px;text-align:center;&quot;&gt;&lt;b&gt;EdgesEightEquals&lt;/b&gt;&lt;/p&gt;&lt;hr size=&quot;1&quot;&gt;&lt;p style=&quot;margin:0px;margin-left:4px;&quot;&gt;- edge: boolean&lt;/p&gt;&lt;hr size=&quot;1&quot;&gt;&lt;p style=&quot;margin:0px;margin-left:4px;&quot;&gt;+ check(Shelf shelf): boolean&lt;br&gt;&lt;/p&gt;&lt;p style=&quot;margin:0px;margin-left:4px;&quot;&gt;- equalsCounter(Shelf shelf): boolean&lt;/p&gt;" style="verticalAlign=top;align=left;overflow=fill;fontSize=12;fontFamily=Helvetica;html=1;whiteSpace=wrap;" parent="1" vertex="1">
          <mxGeometry x="1470" y="414" width="210" height="90" as="geometry" />
        </mxCell>
        <mxCell id="Bs_YzykeCiTkUcpEXx2v-18" style="edgeStyle=orthogonalEdgeStyle;rounded=0;orthogonalLoop=1;jettySize=auto;html=1;exitX=0.5;exitY=0;exitDx=0;exitDy=0;entryX=0.301;entryY=0.988;entryDx=0;entryDy=0;entryPerimeter=0;endArrow=block;endFill=0;" parent="1" source="Bs_YzykeCiTkUcpEXx2v-10" target="Bs_YzykeCiTkUcpEXx2v-4" edge="1">
          <mxGeometry relative="1" as="geometry">
            <Array as="points">
              <mxPoint x="1375" y="380" />
              <mxPoint x="1718" y="380" />
            </Array>
          </mxGeometry>
        </mxCell>
        <mxCell id="Bs_YzykeCiTkUcpEXx2v-10" value="&lt;p style=&quot;margin:0px;margin-top:4px;text-align:center;&quot;&gt;&lt;b&gt;Diagonal&lt;/b&gt;&lt;/p&gt;&lt;hr size=&quot;1&quot;&gt;&lt;p style=&quot;margin:0px;margin-left:4px;&quot;&gt;&lt;br&gt;&lt;/p&gt;&lt;hr size=&quot;1&quot;&gt;&lt;p style=&quot;margin:0px;margin-left:4px;&quot;&gt;+ check(Shelf shelf): boolean&lt;br&gt;&lt;/p&gt;" style="verticalAlign=top;align=left;overflow=fill;fontSize=12;fontFamily=Helvetica;html=1;whiteSpace=wrap;" parent="1" vertex="1">
          <mxGeometry x="1290" y="414" width="170" height="90" as="geometry" />
        </mxCell>
        <mxCell id="Bs_YzykeCiTkUcpEXx2v-17" style="edgeStyle=orthogonalEdgeStyle;rounded=0;orthogonalLoop=1;jettySize=auto;html=1;exitX=0.5;exitY=0;exitDx=0;exitDy=0;entryX=0.191;entryY=1.01;entryDx=0;entryDy=0;entryPerimeter=0;endArrow=block;endFill=0;" parent="1" source="Bs_YzykeCiTkUcpEXx2v-11" target="Bs_YzykeCiTkUcpEXx2v-4" edge="1">
          <mxGeometry relative="1" as="geometry">
            <Array as="points">
              <mxPoint x="1200" y="370" />
              <mxPoint x="1690" y="370" />
            </Array>
          </mxGeometry>
        </mxCell>
        <mxCell id="Bs_YzykeCiTkUcpEXx2v-11" value="&lt;p style=&quot;margin:0px;margin-top:4px;text-align:center;&quot;&gt;&lt;b&gt;Cross&lt;/b&gt;&lt;/p&gt;&lt;hr size=&quot;1&quot;&gt;&lt;p style=&quot;margin:0px;margin-left:4px;&quot;&gt;&lt;br&gt;&lt;/p&gt;&lt;hr size=&quot;1&quot;&gt;&lt;p style=&quot;margin:0px;margin-left:4px;&quot;&gt;+ check(Shelf shelf): boolean&lt;br&gt;&lt;/p&gt;" style="verticalAlign=top;align=left;overflow=fill;fontSize=12;fontFamily=Helvetica;html=1;whiteSpace=wrap;" parent="1" vertex="1">
          <mxGeometry x="1120" y="414" width="160" height="90" as="geometry" />
        </mxCell>
        <mxCell id="Bs_YzykeCiTkUcpEXx2v-20" style="edgeStyle=orthogonalEdgeStyle;rounded=0;orthogonalLoop=1;jettySize=auto;html=1;exitX=0.5;exitY=0;exitDx=0;exitDy=0;entryX=0.538;entryY=1;entryDx=0;entryDy=0;entryPerimeter=0;endArrow=block;endFill=0;" parent="1" source="Bs_YzykeCiTkUcpEXx2v-12" target="Bs_YzykeCiTkUcpEXx2v-4" edge="1">
          <mxGeometry relative="1" as="geometry">
            <Array as="points">
              <mxPoint x="1865" y="380" />
              <mxPoint x="1780" y="380" />
            </Array>
          </mxGeometry>
        </mxCell>
        <mxCell id="Bs_YzykeCiTkUcpEXx2v-12" value="&lt;p style=&quot;margin:0px;margin-top:4px;text-align:center;&quot;&gt;&lt;b&gt;RowColumn&lt;/b&gt;&lt;/p&gt;&lt;hr size=&quot;1&quot;&gt;&lt;p style=&quot;margin:0px;margin-left:4px;&quot;&gt;- diffTiles: int&lt;/p&gt;&lt;p style=&quot;margin:0px;margin-left:4px;&quot;&gt;- rowColumn: boolean&lt;/p&gt;&lt;hr size=&quot;1&quot;&gt;&lt;p style=&quot;margin:0px;margin-left:4px;&quot;&gt;+ check(Shelf shelf): boolean&lt;br&gt;&lt;/p&gt;&lt;p style=&quot;margin:0px;margin-left:4px;&quot;&gt;- shelfVerifier(int code, ArrayList&amp;lt;Integer&amp;gt; numDiffTiles): boolean&lt;/p&gt;&lt;p style=&quot;margin:0px;margin-left:4px;&quot;&gt;- rowColumnCounter(Shelf shelf): ArrayList&amp;lt;Integer&amp;gt;&lt;/p&gt;" style="verticalAlign=top;align=left;overflow=fill;fontSize=12;fontFamily=Helvetica;html=1;whiteSpace=wrap;" parent="1" vertex="1">
          <mxGeometry x="1690" y="414" width="350" height="122" as="geometry" />
        </mxCell>
        <mxCell id="Bs_YzykeCiTkUcpEXx2v-21" style="edgeStyle=orthogonalEdgeStyle;rounded=0;orthogonalLoop=1;jettySize=auto;html=1;exitX=0.5;exitY=0;exitDx=0;exitDy=0;entryX=0.711;entryY=1.01;entryDx=0;entryDy=0;entryPerimeter=0;endArrow=block;endFill=0;" parent="1" source="Bs_YzykeCiTkUcpEXx2v-13" target="Bs_YzykeCiTkUcpEXx2v-4" edge="1">
          <mxGeometry relative="1" as="geometry">
            <Array as="points">
              <mxPoint x="2295" y="370" />
              <mxPoint x="1825" y="370" />
            </Array>
          </mxGeometry>
        </mxCell>
        <mxCell id="Bs_YzykeCiTkUcpEXx2v-13" value="&lt;p style=&quot;margin:0px;margin-top:4px;text-align:center;&quot;&gt;&lt;b&gt;Groups&lt;/b&gt;&lt;/p&gt;&lt;hr size=&quot;1&quot;&gt;&lt;p style=&quot;margin:0px;margin-left:4px;&quot;&gt;- groupDim: int&lt;/p&gt;&lt;p style=&quot;margin:0px;margin-left:4px;&quot;&gt;- coordinates: ArrayList&amp;lt;Point&amp;gt;&lt;/p&gt;&lt;hr size=&quot;1&quot;&gt;&lt;p style=&quot;margin:0px;margin-left:4px;&quot;&gt;+ check(Shelf shelf): boolean&lt;br&gt;&lt;/p&gt;&lt;p style=&quot;margin:0px;margin-left:4px;&quot;&gt;- customShelfIterator(Shelf shelf, boolean matrix[][], TilesEnum type, int row, int column): int&lt;/p&gt;" style="verticalAlign=top;align=left;overflow=fill;fontSize=12;fontFamily=Helvetica;html=1;whiteSpace=wrap;" parent="1" vertex="1">
          <mxGeometry x="2050" y="414" width="490" height="110" as="geometry" />
        </mxCell>
        <mxCell id="Bs_YzykeCiTkUcpEXx2v-15" style="edgeStyle=orthogonalEdgeStyle;rounded=0;orthogonalLoop=1;jettySize=auto;html=1;exitX=0.5;exitY=0;exitDx=0;exitDy=0;entryX=0.081;entryY=1.01;entryDx=0;entryDy=0;entryPerimeter=0;endArrow=block;endFill=0;" parent="1" source="Bs_YzykeCiTkUcpEXx2v-14" target="Bs_YzykeCiTkUcpEXx2v-4" edge="1">
          <mxGeometry relative="1" as="geometry" />
        </mxCell>
        <mxCell id="Bs_YzykeCiTkUcpEXx2v-14" value="&lt;p style=&quot;margin:0px;margin-top:4px;text-align:center;&quot;&gt;&lt;b&gt;Square&lt;/b&gt;&lt;/p&gt;&lt;hr size=&quot;1&quot;&gt;&lt;p style=&quot;margin:0px;margin-left:4px;&quot;&gt;&lt;br&gt;&lt;/p&gt;&lt;hr size=&quot;1&quot;&gt;&lt;p style=&quot;margin:0px;margin-left:4px;&quot;&gt;+ check(Shelf shelf): boolean&lt;br&gt;&lt;/p&gt;&lt;p style=&quot;margin:0px;margin-left:4px;&quot;&gt;- insertCoords(ArrayList&amp;lt;Point&amp;gt; coordinates, int x, int y): void&lt;/p&gt;&lt;p style=&quot;margin:0px;margin-left:4px;&quot;&gt;- notContainsCoords(ArrayList&amp;lt;Point&amp;gt; coordinates, int x, int y): boolean&lt;/p&gt;&lt;p style=&quot;margin:0px;margin-left:4px;&quot;&gt;- isValidSquare(Shelf shelf, TilesEnum tileType, int x, int y): boolean&lt;/p&gt;" style="verticalAlign=top;align=left;overflow=fill;fontSize=12;fontFamily=Helvetica;html=1;whiteSpace=wrap;fillColor=default;" parent="1" vertex="1">
          <mxGeometry x="1180" y="240" width="390" height="120" as="geometry" />
        </mxCell>
        <mxCell id="1AL47Ae-udw0xNspE_Op-1" value="" style="shape=folder;fontStyle=1;spacingTop=10;tabWidth=40;tabHeight=14;tabPosition=left;html=1;whiteSpace=wrap;shadow=0;fillColor=none;" parent="1" vertex="1">
          <mxGeometry x="250" y="-790" width="1140" height="490" as="geometry" />
        </mxCell>
        <mxCell id="1AL47Ae-udw0xNspE_Op-2" value="Distributed" style="text;html=1;strokeColor=none;fillColor=none;align=center;verticalAlign=middle;whiteSpace=wrap;rounded=0;" parent="1" vertex="1">
          <mxGeometry x="255" y="-770" width="60" height="30" as="geometry" />
        </mxCell>
        <mxCell id="1AL47Ae-udw0xNspE_Op-3" value="&lt;p style=&quot;margin:0px;margin-top:4px;text-align:center;&quot;&gt;&lt;i&gt;&amp;lt;&amp;lt;Interface&amp;gt;&amp;gt;&lt;/i&gt;&lt;br&gt;&lt;b&gt;Client&lt;/b&gt;&lt;/p&gt;&lt;hr size=&quot;1&quot;&gt;&lt;p style=&quot;margin:0px;margin-left:4px;&quot;&gt;+ update(GameView, Event): void&lt;/p&gt;&lt;p style=&quot;margin:0px;margin-left:4px;&quot;&gt;+ getGui(): GrephicalUI&lt;/p&gt;&lt;p style=&quot;margin:0px;margin-left:4px;&quot;&gt;+ getTui(): TextualUI&lt;/p&gt;" style="verticalAlign=top;align=left;overflow=fill;fontSize=12;fontFamily=Helvetica;html=1;whiteSpace=wrap;" parent="1" vertex="1">
          <mxGeometry x="280" y="-540" width="380" height="100" as="geometry" />
        </mxCell>
        <mxCell id="1AL47Ae-udw0xNspE_Op-5" value="&lt;p style=&quot;margin:0px;margin-top:4px;text-align:center;&quot;&gt;&lt;i&gt;&amp;lt;&amp;lt;Interface&amp;gt;&amp;gt;&lt;/i&gt;&lt;br&gt;&lt;b&gt;Server&lt;/b&gt;&lt;/p&gt;&lt;hr size=&quot;1&quot;&gt;&lt;p style=&quot;margin:0px;margin-left:4px;&quot;&gt;+ update(Client, UIEvent, InputController): void&lt;/p&gt;&lt;p style=&quot;margin:0px;margin-left:4px;&quot;&gt;+ register(Client): void&lt;/p&gt;" style="verticalAlign=top;align=left;overflow=fill;fontSize=12;fontFamily=Helvetica;html=1;whiteSpace=wrap;" parent="1" vertex="1">
          <mxGeometry x="270" y="-720" width="420" height="90" as="geometry" />
        </mxCell>
        <mxCell id="1AL47Ae-udw0xNspE_Op-6" value="ClientImpl" style="swimlane;fontStyle=1;align=center;verticalAlign=top;childLayout=stackLayout;horizontal=1;startSize=26;horizontalStack=0;resizeParent=1;resizeParentMax=0;resizeLast=0;collapsible=1;marginBottom=0;whiteSpace=wrap;html=1;" parent="1" vertex="1">
          <mxGeometry x="780" y="-499" width="219" height="180" as="geometry" />
        </mxCell>
        <mxCell id="1AL47Ae-udw0xNspE_Op-7" value="+ gui: GraphicalUI&lt;br&gt;+ tui: TextualUI" style="text;strokeColor=none;fillColor=none;align=left;verticalAlign=top;spacingLeft=4;spacingRight=4;overflow=hidden;rotatable=0;points=[[0,0.5],[1,0.5]];portConstraint=eastwest;whiteSpace=wrap;html=1;" parent="1AL47Ae-udw0xNspE_Op-6" vertex="1">
          <mxGeometry y="26" width="219" height="34" as="geometry" />
        </mxCell>
        <mxCell id="1AL47Ae-udw0xNspE_Op-8" value="" style="line;strokeWidth=1;fillColor=none;align=left;verticalAlign=middle;spacingTop=-1;spacingLeft=3;spacingRight=3;rotatable=0;labelPosition=right;points=[];portConstraint=eastwest;strokeColor=inherit;" parent="1AL47Ae-udw0xNspE_Op-6" vertex="1">
          <mxGeometry y="60" width="219" height="20" as="geometry" />
        </mxCell>
        <mxCell id="1AL47Ae-udw0xNspE_Op-9" value="+ getTui(): TextualUI&lt;br&gt;+ getGui(): GraphicalUI&lt;br&gt;- initialize(Server): void&lt;br&gt;- runView(): void&lt;br&gt;+ update(GameView, Event): void&lt;br&gt;- chooseUI(): void" style="text;strokeColor=none;fillColor=none;align=left;verticalAlign=top;spacingLeft=4;spacingRight=4;overflow=hidden;rotatable=0;points=[[0,0.5],[1,0.5]];portConstraint=eastwest;whiteSpace=wrap;html=1;" parent="1AL47Ae-udw0xNspE_Op-6" vertex="1">
          <mxGeometry y="80" width="219" height="100" as="geometry" />
        </mxCell>
        <mxCell id="1AL47Ae-udw0xNspE_Op-10" value="ServerImpl" style="swimlane;fontStyle=1;align=center;verticalAlign=top;childLayout=stackLayout;horizontal=1;startSize=26;horizontalStack=0;resizeParent=1;resizeParentMax=0;resizeLast=0;collapsible=1;marginBottom=0;whiteSpace=wrap;html=1;" parent="1" vertex="1">
          <mxGeometry x="740" y="-750" width="280" height="110" as="geometry" />
        </mxCell>
        <mxCell id="1AL47Ae-udw0xNspE_Op-11" value="- controller: Engine" style="text;strokeColor=none;fillColor=none;align=left;verticalAlign=top;spacingLeft=4;spacingRight=4;overflow=hidden;rotatable=0;points=[[0,0.5],[1,0.5]];portConstraint=eastwest;whiteSpace=wrap;html=1;" parent="1AL47Ae-udw0xNspE_Op-10" vertex="1">
          <mxGeometry y="26" width="280" height="26" as="geometry" />
        </mxCell>
        <mxCell id="1AL47Ae-udw0xNspE_Op-12" value="" style="line;strokeWidth=1;fillColor=none;align=left;verticalAlign=middle;spacingTop=-1;spacingLeft=3;spacingRight=3;rotatable=0;labelPosition=right;points=[];portConstraint=eastwest;strokeColor=inherit;" parent="1AL47Ae-udw0xNspE_Op-10" vertex="1">
          <mxGeometry y="52" width="280" height="8" as="geometry" />
        </mxCell>
        <mxCell id="1AL47Ae-udw0xNspE_Op-13" value="+ update(Client, UIEvent, ImputController): void&lt;br&gt;+ register(Client): void" style="text;strokeColor=none;fillColor=none;align=left;verticalAlign=top;spacingLeft=4;spacingRight=4;overflow=hidden;rotatable=0;points=[[0,0.5],[1,0.5]];portConstraint=eastwest;whiteSpace=wrap;html=1;" parent="1AL47Ae-udw0xNspE_Op-10" vertex="1">
          <mxGeometry y="60" width="280" height="50" as="geometry" />
        </mxCell>
        <mxCell id="1AL47Ae-udw0xNspE_Op-17" style="edgeStyle=orthogonalEdgeStyle;rounded=0;orthogonalLoop=1;jettySize=auto;html=1;exitX=0;exitY=0.5;exitDx=0;exitDy=0;entryX=1;entryY=0.75;entryDx=0;entryDy=0;endArrow=block;endFill=0;" parent="1" source="1AL47Ae-udw0xNspE_Op-7" target="1AL47Ae-udw0xNspE_Op-3" edge="1">
          <mxGeometry relative="1" as="geometry">
            <Array as="points">
              <mxPoint x="780" y="-465" />
            </Array>
          </mxGeometry>
        </mxCell>
        <mxCell id="1AL47Ae-udw0xNspE_Op-19" value="" style="shape=folder;fontStyle=1;spacingTop=10;tabWidth=40;tabHeight=14;tabPosition=left;html=1;whiteSpace=wrap;fillColor=none;" parent="1" vertex="1">
          <mxGeometry x="1070" y="-770" width="310" height="450" as="geometry" />
        </mxCell>
        <mxCell id="1AL47Ae-udw0xNspE_Op-20" value="SocketMiddleware" style="text;html=1;strokeColor=none;fillColor=none;align=center;verticalAlign=middle;whiteSpace=wrap;rounded=0;" parent="1" vertex="1">
          <mxGeometry x="1070" y="-760" width="120" height="30" as="geometry" />
        </mxCell>
        <mxCell id="1AL47Ae-udw0xNspE_Op-21" value="ServerStub" style="swimlane;fontStyle=1;align=center;verticalAlign=top;childLayout=stackLayout;horizontal=1;startSize=26;horizontalStack=0;resizeParent=1;resizeParentMax=0;resizeLast=0;collapsible=1;marginBottom=0;whiteSpace=wrap;html=1;" parent="1" vertex="1">
          <mxGeometry x="1090" y="-730" width="270" height="208" as="geometry" />
        </mxCell>
        <mxCell id="1AL47Ae-udw0xNspE_Op-22" value="- socket: Socket&lt;br&gt;- ip: String&lt;br&gt;- ois: ObjectImputStream&lt;br&gt;- oos: ObjectOutputStream&lt;br&gt;- port: int" style="text;strokeColor=none;fillColor=none;align=left;verticalAlign=top;spacingLeft=4;spacingRight=4;overflow=hidden;rotatable=0;points=[[0,0.5],[1,0.5]];portConstraint=eastwest;whiteSpace=wrap;html=1;" parent="1AL47Ae-udw0xNspE_Op-21" vertex="1">
          <mxGeometry y="26" width="270" height="84" as="geometry" />
        </mxCell>
        <mxCell id="1AL47Ae-udw0xNspE_Op-23" value="" style="line;strokeWidth=1;fillColor=none;align=left;verticalAlign=middle;spacingTop=-1;spacingLeft=3;spacingRight=3;rotatable=0;labelPosition=right;points=[];portConstraint=eastwest;strokeColor=inherit;" parent="1AL47Ae-udw0xNspE_Op-21" vertex="1">
          <mxGeometry y="110" width="270" height="8" as="geometry" />
        </mxCell>
        <mxCell id="1AL47Ae-udw0xNspE_Op-24" value="+ register(Client): void&lt;br&gt;+ recive(Client): void&lt;br&gt;+ close(): void&lt;br&gt;+ update(Client, UIEvent, InputController): void" style="text;strokeColor=none;fillColor=none;align=left;verticalAlign=top;spacingLeft=4;spacingRight=4;overflow=hidden;rotatable=0;points=[[0,0.5],[1,0.5]];portConstraint=eastwest;whiteSpace=wrap;html=1;" parent="1AL47Ae-udw0xNspE_Op-21" vertex="1">
          <mxGeometry y="118" width="270" height="90" as="geometry" />
        </mxCell>
        <mxCell id="1AL47Ae-udw0xNspE_Op-25" value="ClientSkeleton" style="swimlane;fontStyle=1;align=center;verticalAlign=top;childLayout=stackLayout;horizontal=1;startSize=26;horizontalStack=0;resizeParent=1;resizeParentMax=0;resizeLast=0;collapsible=1;marginBottom=0;whiteSpace=wrap;html=1;" parent="1" vertex="1">
          <mxGeometry x="1120" y="-492" width="200" height="158" as="geometry" />
        </mxCell>
        <mxCell id="1AL47Ae-udw0xNspE_Op-26" value="- oos: ObjectOutputStream&lt;br&gt;- ois: ObjectImputStream" style="text;strokeColor=none;fillColor=none;align=left;verticalAlign=top;spacingLeft=4;spacingRight=4;overflow=hidden;rotatable=0;points=[[0,0.5],[1,0.5]];portConstraint=eastwest;whiteSpace=wrap;html=1;" parent="1AL47Ae-udw0xNspE_Op-25" vertex="1">
          <mxGeometry y="26" width="200" height="44" as="geometry" />
        </mxCell>
        <mxCell id="1AL47Ae-udw0xNspE_Op-27" value="" style="line;strokeWidth=1;fillColor=none;align=left;verticalAlign=middle;spacingTop=-1;spacingLeft=3;spacingRight=3;rotatable=0;labelPosition=right;points=[];portConstraint=eastwest;strokeColor=inherit;" parent="1AL47Ae-udw0xNspE_Op-25" vertex="1">
          <mxGeometry y="70" width="200" height="8" as="geometry" />
        </mxCell>
        <mxCell id="1AL47Ae-udw0xNspE_Op-28" value="+ getGui(): GraphicalUI&lt;br&gt;+ getTui(): TextualUI&lt;br&gt;+ receive(Server): void&lt;br&gt;update(GameView, Event): void" style="text;strokeColor=none;fillColor=none;align=left;verticalAlign=top;spacingLeft=4;spacingRight=4;overflow=hidden;rotatable=0;points=[[0,0.5],[1,0.5]];portConstraint=eastwest;whiteSpace=wrap;html=1;" parent="1AL47Ae-udw0xNspE_Op-25" vertex="1">
          <mxGeometry y="78" width="200" height="80" as="geometry" />
        </mxCell>
        <mxCell id="1AL47Ae-udw0xNspE_Op-29" style="edgeStyle=orthogonalEdgeStyle;rounded=0;orthogonalLoop=1;jettySize=auto;html=1;exitX=0;exitY=0.264;exitDx=0;exitDy=0;entryX=1.009;entryY=0.817;entryDx=0;entryDy=0;entryPerimeter=0;endArrow=block;endFill=0;exitPerimeter=0;" parent="1" source="1AL47Ae-udw0xNspE_Op-22" target="1AL47Ae-udw0xNspE_Op-5" edge="1">
          <mxGeometry relative="1" as="geometry">
            <Array as="points">
              <mxPoint x="1050" y="-682" />
              <mxPoint x="1050" y="-610" />
              <mxPoint x="720" y="-610" />
              <mxPoint x="720" y="-646" />
            </Array>
          </mxGeometry>
        </mxCell>
        <mxCell id="5FTyxGPGVCbrAZPdwMV5-3" style="edgeStyle=orthogonalEdgeStyle;rounded=0;orthogonalLoop=1;jettySize=auto;html=1;exitX=0;exitY=0.5;exitDx=0;exitDy=0;endArrow=block;endFill=0;" parent="1" source="1AL47Ae-udw0xNspE_Op-26" edge="1">
          <mxGeometry relative="1" as="geometry">
            <mxPoint x="660" y="-510" as="targetPoint" />
            <Array as="points">
              <mxPoint x="1040" y="-471" />
              <mxPoint x="1040" y="-510" />
            </Array>
          </mxGeometry>
        </mxCell>
        <mxCell id="5FTyxGPGVCbrAZPdwMV5-4" style="edgeStyle=orthogonalEdgeStyle;rounded=0;orthogonalLoop=1;jettySize=auto;html=1;exitX=0;exitY=0.5;exitDx=0;exitDy=0;endArrow=block;endFill=0;" parent="1" source="1AL47Ae-udw0xNspE_Op-11" target="1AL47Ae-udw0xNspE_Op-5" edge="1">
          <mxGeometry relative="1" as="geometry" />
        </mxCell>
        <mxCell id="F7evz0KNMgZYf-CdFRLq-9" value="&lt;p style=&quot;margin:0px;margin-top:4px;text-align:center;&quot;&gt;&lt;i&gt;&amp;lt;&amp;lt;Enumeration&amp;gt;&amp;gt;&lt;/i&gt;&lt;/p&gt;&lt;p style=&quot;text-align: center; margin: 4px 0px 0px;&quot;&gt;&lt;span style=&quot;background-color: initial; text-align: left;&quot;&gt;&lt;b&gt;&lt;i&gt;GameStates&lt;/i&gt;&lt;/b&gt;&lt;/span&gt;&lt;/p&gt;&lt;p style=&quot;margin: 4px 0px 0px;&quot;&gt;&lt;span style=&quot;background-color: initial;&quot;&gt;&amp;nbsp; SILLY&lt;/span&gt;&lt;br&gt;&lt;/p&gt;&lt;p style=&quot;margin: 4px 0px 0px;&quot;&gt;&amp;nbsp; LOBBY&lt;/p&gt;&lt;p style=&quot;margin: 4px 0px 0px;&quot;&gt;&amp;nbsp; RUNNING&lt;/p&gt;&lt;p style=&quot;margin: 4px 0px 0px;&quot;&gt;&amp;nbsp; ENDING&lt;/p&gt;&lt;p style=&quot;margin: 4px 0px 0px;&quot;&gt;&lt;br&gt;&lt;/p&gt;" style="verticalAlign=top;align=left;overflow=fill;fontSize=12;fontFamily=Helvetica;html=1;whiteSpace=wrap;" parent="1" vertex="1">
          <mxGeometry x="50" y="-60" width="160" height="120" as="geometry" />
        </mxCell>
        <mxCell id="F7evz0KNMgZYf-CdFRLq-14" value="TextualUI" style="swimlane;fontStyle=1;align=center;verticalAlign=top;childLayout=stackLayout;horizontal=1;startSize=26;horizontalStack=0;resizeParent=1;resizeParentMax=0;resizeLast=0;collapsible=1;marginBottom=0;whiteSpace=wrap;html=1;" parent="1" vertex="1">
          <mxGeometry x="1460" y="-735" width="270" height="370" as="geometry" />
        </mxCell>
        <mxCell id="F7evz0KNMgZYf-CdFRLq-15" value="- lock: Object&lt;br&gt;- nickname: String&lt;br&gt;- coordinate: Point&lt;br&gt;- state: UIState&lt;br&gt;- number: Integer" style="text;strokeColor=none;fillColor=none;align=left;verticalAlign=top;spacingLeft=4;spacingRight=4;overflow=hidden;rotatable=0;points=[[0,0.5],[1,0.5]];portConstraint=eastwest;whiteSpace=wrap;html=1;" parent="F7evz0KNMgZYf-CdFRLq-14" vertex="1">
          <mxGeometry y="26" width="270" height="84" as="geometry" />
        </mxCell>
        <mxCell id="F7evz0KNMgZYf-CdFRLq-16" value="" style="line;strokeWidth=1;fillColor=none;align=left;verticalAlign=middle;spacingTop=-1;spacingLeft=3;spacingRight=3;rotatable=0;labelPosition=right;points=[];portConstraint=eastwest;strokeColor=inherit;" parent="F7evz0KNMgZYf-CdFRLq-14" vertex="1">
          <mxGeometry y="110" width="270" height="8" as="geometry" />
        </mxCell>
        <mxCell id="F7evz0KNMgZYf-CdFRLq-17" value="+ update(GameView, Event): void&lt;br&gt;+ getCoordinate(): Point&lt;br&gt;- showShelf(GameView): void&lt;br&gt;- selectColumnInput(): Integer&lt;br&gt;- showBoard(GameView): void&lt;br&gt;+ getIndex(): Integer&lt;br&gt;- chooseColumn(): boolean&lt;br&gt;+ setState(UIState): void&lt;br&gt;+ run(): void&lt;br&gt;- selectTilesImput(): Point&lt;br&gt;- showCurrentPlayer(GameView): void&lt;br&gt;- showChat(GameView): void&lt;br&gt;- chooseTiles(): boolean&lt;br&gt;- insertNickname(): void&lt;br&gt;- getState(): UIState&lt;br&gt;+ getNickname(): String" style="text;strokeColor=none;fillColor=none;align=left;verticalAlign=top;spacingLeft=4;spacingRight=4;overflow=hidden;rotatable=0;points=[[0,0.5],[1,0.5]];portConstraint=eastwest;whiteSpace=wrap;html=1;" parent="F7evz0KNMgZYf-CdFRLq-14" vertex="1">
          <mxGeometry y="118" width="270" height="252" as="geometry" />
        </mxCell>
        <mxCell id="F7evz0KNMgZYf-CdFRLq-18" value="GraphicalUI" style="swimlane;fontStyle=1;align=center;verticalAlign=top;childLayout=stackLayout;horizontal=1;startSize=26;horizontalStack=0;resizeParent=1;resizeParentMax=0;resizeLast=0;collapsible=1;marginBottom=0;whiteSpace=wrap;html=1;" parent="1" vertex="1">
          <mxGeometry x="1760" y="-735" width="270" height="120" as="geometry" />
        </mxCell>
        <mxCell id="F7evz0KNMgZYf-CdFRLq-19" value="- state: UIState" style="text;strokeColor=none;fillColor=none;align=left;verticalAlign=top;spacingLeft=4;spacingRight=4;overflow=hidden;rotatable=0;points=[[0,0.5],[1,0.5]];portConstraint=eastwest;whiteSpace=wrap;html=1;" parent="F7evz0KNMgZYf-CdFRLq-18" vertex="1">
          <mxGeometry y="26" width="270" height="24" as="geometry" />
        </mxCell>
        <mxCell id="F7evz0KNMgZYf-CdFRLq-20" value="" style="line;strokeWidth=1;fillColor=none;align=left;verticalAlign=middle;spacingTop=-1;spacingLeft=3;spacingRight=3;rotatable=0;labelPosition=right;points=[];portConstraint=eastwest;strokeColor=inherit;" parent="F7evz0KNMgZYf-CdFRLq-18" vertex="1">
          <mxGeometry y="50" width="270" height="8" as="geometry" />
        </mxCell>
        <mxCell id="F7evz0KNMgZYf-CdFRLq-21" value="+ run(): void&lt;br&gt;+ update(GameView, Event): void&lt;br&gt;+ setState(UIState): void" style="text;strokeColor=none;fillColor=none;align=left;verticalAlign=top;spacingLeft=4;spacingRight=4;overflow=hidden;rotatable=0;points=[[0,0.5],[1,0.5]];portConstraint=eastwest;whiteSpace=wrap;html=1;" parent="F7evz0KNMgZYf-CdFRLq-18" vertex="1">
          <mxGeometry y="58" width="270" height="62" as="geometry" />
        </mxCell>
        <mxCell id="F7evz0KNMgZYf-CdFRLq-22" value="&lt;p style=&quot;margin:0px;margin-top:4px;text-align:center;&quot;&gt;&lt;i&gt;&amp;lt;&amp;lt;Enumeration&amp;gt;&amp;gt;&lt;/i&gt;&lt;/p&gt;&lt;p style=&quot;margin:0px;margin-top:4px;text-align:center;&quot;&gt;&lt;b&gt;&lt;i&gt;UIState&lt;/i&gt;&lt;/b&gt;&lt;/p&gt;&lt;p style=&quot;margin:0px;margin-top:4px;text-align:center;&quot;&gt;&lt;b&gt;&lt;i&gt;&lt;br&gt;&lt;/i&gt;&lt;/b&gt;&lt;/p&gt;&lt;p style=&quot;margin:0px;margin-left:4px;&quot;&gt;&amp;nbsp;GAME_ENDING&lt;/p&gt;&lt;p style=&quot;margin:0px;margin-left:4px;&quot;&gt;&amp;nbsp;OPPONENT_TURN&lt;/p&gt;&lt;p style=&quot;margin:0px;margin-left:4px;&quot;&gt;&amp;nbsp;YOUR_TURN&lt;/p&gt;" style="verticalAlign=top;align=left;overflow=fill;fontSize=12;fontFamily=Helvetica;html=1;whiteSpace=wrap;" parent="1" vertex="1">
          <mxGeometry x="2070" y="-513" width="170" height="100" as="geometry" />
        </mxCell>
        <mxCell id="F7evz0KNMgZYf-CdFRLq-23" value="&lt;p style=&quot;margin:0px;margin-top:4px;text-align:center;&quot;&gt;&lt;i&gt;&amp;lt;&amp;lt;Enumeration&amp;gt;&amp;gt;&lt;/i&gt;&lt;/p&gt;&lt;p style=&quot;margin:0px;margin-top:4px;text-align:center;&quot;&gt;&lt;b&gt;&lt;i&gt;UIEvent&lt;/i&gt;&lt;/b&gt;&lt;/p&gt;&lt;p style=&quot;margin:0px;margin-left:4px;&quot;&gt;&lt;br&gt;&lt;/p&gt;&lt;p style=&quot;margin:0px;margin-left:4px;&quot;&gt;&amp;nbsp;CONFIRM_SELECTION&lt;/p&gt;&lt;p style=&quot;margin:0px;margin-left:4px;&quot;&gt;&amp;nbsp;TILE_SELECTION&lt;br&gt;&amp;nbsp;SAY_IN_CHAT&lt;br&gt;&amp;nbsp;CHOOSE_NICKNAME&lt;/p&gt;&lt;p style=&quot;margin:0px;margin-left:4px;&quot;&gt;&amp;nbsp;TILE_INSETION&lt;br&gt;&amp;nbsp;COLUMN_SELECTION&lt;/p&gt;" style="verticalAlign=top;align=left;overflow=fill;fontSize=12;fontFamily=Helvetica;html=1;whiteSpace=wrap;" parent="1" vertex="1">
          <mxGeometry x="2070" y="-735" width="170" height="149" as="geometry" />
        </mxCell>
        <mxCell id="F7evz0KNMgZYf-CdFRLq-27" value="GameView" style="swimlane;fontStyle=1;align=center;verticalAlign=top;childLayout=stackLayout;horizontal=1;startSize=26;horizontalStack=0;resizeParent=1;resizeParentMax=0;resizeLast=0;collapsible=1;marginBottom=0;whiteSpace=wrap;html=1;" parent="1" vertex="1">
          <mxGeometry x="700" y="700" width="200" height="190" as="geometry" />
        </mxCell>
        <mxCell id="F7evz0KNMgZYf-CdFRLq-28" value="- seriealVersionUID: long&lt;br&gt;- gameBoard: Board&lt;br&gt;- chat: Chat&lt;br&gt;- currentPlayerName: String&lt;br&gt;- currentPlayerShelf: Shelf" style="text;strokeColor=none;fillColor=none;align=left;verticalAlign=top;spacingLeft=4;spacingRight=4;overflow=hidden;rotatable=0;points=[[0,0.5],[1,0.5]];portConstraint=eastwest;whiteSpace=wrap;html=1;" parent="F7evz0KNMgZYf-CdFRLq-27" vertex="1">
          <mxGeometry y="26" width="200" height="84" as="geometry" />
        </mxCell>
        <mxCell id="F7evz0KNMgZYf-CdFRLq-29" value="" style="line;strokeWidth=1;fillColor=none;align=left;verticalAlign=middle;spacingTop=-1;spacingLeft=3;spacingRight=3;rotatable=0;labelPosition=right;points=[];portConstraint=eastwest;strokeColor=inherit;" parent="F7evz0KNMgZYf-CdFRLq-27" vertex="1">
          <mxGeometry y="110" width="200" height="8" as="geometry" />
        </mxCell>
        <mxCell id="F7evz0KNMgZYf-CdFRLq-30" value="+ getGameBoard(): Board&lt;br&gt;+ getCurrentPlayerShelf(): Shelf&lt;br&gt;+ getChat(): Chat&lt;br&gt;+ getCurrentPlayerName(): String" style="text;strokeColor=none;fillColor=none;align=left;verticalAlign=top;spacingLeft=4;spacingRight=4;overflow=hidden;rotatable=0;points=[[0,0.5],[1,0.5]];portConstraint=eastwest;whiteSpace=wrap;html=1;" parent="F7evz0KNMgZYf-CdFRLq-27" vertex="1">
          <mxGeometry y="118" width="200" height="72" as="geometry" />
        </mxCell>
        <mxCell id="F7evz0KNMgZYf-CdFRLq-31" value="InputController" style="swimlane;fontStyle=1;align=center;verticalAlign=top;childLayout=stackLayout;horizontal=1;startSize=26;horizontalStack=0;resizeParent=1;resizeParentMax=0;resizeLast=0;collapsible=1;marginBottom=0;whiteSpace=wrap;html=1;" parent="1" vertex="1">
          <mxGeometry x="940" y="700" width="160" height="150" as="geometry" />
        </mxCell>
        <mxCell id="F7evz0KNMgZYf-CdFRLq-32" value="- coordinate: Point&lt;br&gt;- string: String&lt;br&gt;- integer: Integer" style="text;strokeColor=none;fillColor=none;align=left;verticalAlign=top;spacingLeft=4;spacingRight=4;overflow=hidden;rotatable=0;points=[[0,0.5],[1,0.5]];portConstraint=eastwest;whiteSpace=wrap;html=1;" parent="F7evz0KNMgZYf-CdFRLq-31" vertex="1">
          <mxGeometry y="26" width="160" height="54" as="geometry" />
        </mxCell>
        <mxCell id="F7evz0KNMgZYf-CdFRLq-33" value="" style="line;strokeWidth=1;fillColor=none;align=left;verticalAlign=middle;spacingTop=-1;spacingLeft=3;spacingRight=3;rotatable=0;labelPosition=right;points=[];portConstraint=eastwest;strokeColor=inherit;" parent="F7evz0KNMgZYf-CdFRLq-31" vertex="1">
          <mxGeometry y="80" width="160" height="8" as="geometry" />
        </mxCell>
        <mxCell id="F7evz0KNMgZYf-CdFRLq-34" value="+ getCoordinate(): Point&lt;br&gt;+ getIndex(): Integer&lt;br&gt;getString(): String" style="text;strokeColor=none;fillColor=none;align=left;verticalAlign=top;spacingLeft=4;spacingRight=4;overflow=hidden;rotatable=0;points=[[0,0.5],[1,0.5]];portConstraint=eastwest;whiteSpace=wrap;html=1;" parent="F7evz0KNMgZYf-CdFRLq-31" vertex="1">
          <mxGeometry y="88" width="160" height="62" as="geometry" />
        </mxCell>
        <mxCell id="0j8p1se4WsX_w9YfrRnY-2" value="View" style="text;html=1;strokeColor=none;fillColor=none;align=center;verticalAlign=middle;whiteSpace=wrap;rounded=0;" parent="1" vertex="1">
          <mxGeometry x="1440" y="-770" width="60" height="30" as="geometry" />
        </mxCell>
      </root>
    </mxGraphModel>
  </diagram>
</mxfile>
